<svg xmlns="http://www.w3.org/2000/svg" width="18.025" height="16.022" viewBox="0 0 18.025 16.022">
  <path id="arrow-up-right-dots-light" d="M9.513,0a.5.5,0,0,1,.5.5V5.508a.5.5,0,0,1-1,0V1.71L.855,9.867a.5.5,0,0,1-.708-.707L8.305,1h-3.8a.5.5,0,0,1,0-1Zm5.508,2.5a1.5,1.5,0,1,1,1.5,1.5A1.5,1.5,0,0,1,15.021,2.5Zm1.5.5a.5.5,0,1,0-.5-.5A.5.5,0,0,0,16.523,3Zm-5.508,3.5a1.5,1.5,0,1,1,1.5,1.5A1.5,1.5,0,0,1,11.015,6.509Zm1.5.5a.5.5,0,1,0-.5-.5A.5.5,0,0,0,12.517,7.01Zm1.5,3.5a1.5,1.5,0,1,1-1.5-1.5A1.5,1.5,0,0,1,14.019,10.514Zm-1.5-.5a.5.5,0,1,0,.5.5A.5.5,0,0,0,12.517,10.014Zm-1.5,4.506a1.5,1.5,0,1,1,1.5,1.5A1.5,1.5,0,0,1,11.015,14.52Zm1.5.5a.5.5,0,1,0-.5-.5A.5.5,0,0,0,12.517,15.021Zm2.5-.5a1.5,1.5,0,1,1,1.5,1.5A1.5,1.5,0,0,1,15.021,14.52Zm1.5.5a.5.5,0,1,0-.5-.5A.5.5,0,0,0,16.523,15.021Zm-6.509-4.506a1.5,1.5,0,1,1-1.5-1.5A1.5,1.5,0,0,1,10.014,10.514Zm-1.5-.5a.5.5,0,1,0,.5.5A.5.5,0,0,0,8.512,10.014ZM7.01,14.52a1.5,1.5,0,1,1,1.5,1.5A1.5,1.5,0,0,1,7.01,14.52Zm1.5.5a.5.5,0,1,0-.5-.5A.5.5,0,0,0,8.512,15.021Zm-2.5-.5a1.5,1.5,0,1,1-1.5-1.5A1.5,1.5,0,0,1,6.008,14.52Zm-1.5-.5a.5.5,0,1,0,.5.5A.5.5,0,0,0,4.506,14.019Zm10.514-3.5a1.5,1.5,0,1,1,1.5,1.5A1.5,1.5,0,0,1,15.021,10.514Zm1.5.5a.5.5,0,1,0-.5-.5A.5.5,0,0,0,16.523,11.015Zm1.5-4.506a1.5,1.5,0,1,1-1.5-1.5A1.5,1.5,0,0,1,18.025,6.509Zm-1.5-.5a.5.5,0,1,0,.5.5A.5.5,0,0,0,16.523,6.008Z" fill="#fff"/>
</svg>
