<svg xmlns="http://www.w3.org/2000/svg" width="34.36" height="38.3" viewBox="0 0 34.36 38.3">
  <g id="Group_2144" data-name="Group 2144" transform="translate(6.843 7.628)">
    <path id="calendar-days-light" d="M8.59,0A1.214,1.214,0,0,1,9.817,1.2V4.788H24.543V1.2A1.228,1.228,0,0,1,27,1.2V4.788h2.454A4.851,4.851,0,0,1,34.36,9.575V33.513A4.854,4.854,0,0,1,29.451,38.3H4.909A4.851,4.851,0,0,1,0,33.513V9.575A4.849,4.849,0,0,1,4.909,4.788H7.363V1.2A1.214,1.214,0,0,1,8.59,0ZM31.906,14.363H23.929v5.386h7.976Zm0,7.78H23.929v5.984h7.976Zm0,8.378H23.929v5.386h5.522a2.422,2.422,0,0,0,2.454-2.394ZM21.475,28.127V22.142h-8.59v5.984Zm-8.59,7.78h8.59V30.52h-8.59Zm-2.454-7.78V22.142H2.454v5.984ZM2.454,30.52v2.992a2.423,2.423,0,0,0,2.454,2.394h5.522V30.52Zm0-10.772h7.976V14.363H2.454Zm10.431,0h8.59V14.363h-8.59ZM29.451,7.181H4.909A2.423,2.423,0,0,0,2.454,9.575v2.394H31.906V9.575A2.422,2.422,0,0,0,29.451,7.181Z" transform="translate(-6.843 -7.628)" fill="#002b42"/>
  </g>
</svg>
