<svg xmlns="http://www.w3.org/2000/svg" width="32.307" height="36.922" viewBox="0 0 32.307 36.922">
  <path id="calendar-days-light" d="M8.077,0A1.156,1.156,0,0,1,9.23,1.154V4.615H23.076V1.154a1.154,1.154,0,0,1,2.308,0V4.615h2.308A4.617,4.617,0,0,1,32.307,9.23V32.307a4.62,4.62,0,0,1-4.615,4.615H4.615A4.617,4.617,0,0,1,0,32.307V9.23A4.615,4.615,0,0,1,4.615,4.615H6.923V1.154A1.156,1.156,0,0,1,8.077,0ZM30,13.846H22.5v5.192H30Zm0,7.5H22.5v5.769H30Zm0,8.077H22.5v5.192h5.192A2.305,2.305,0,0,0,30,32.307Zm-9.807-2.308V21.345H12.115v5.769Zm-8.077,7.5h8.077V29.422H12.115Zm-2.308-7.5V21.345h-7.5v5.769Zm-7.5,2.308v2.885a2.307,2.307,0,0,0,2.308,2.308H9.807V29.422Zm0-10.384h7.5V13.846h-7.5Zm9.807,0h8.077V13.846H12.115ZM27.691,6.923H4.615A2.307,2.307,0,0,0,2.308,9.23v2.308H30V9.23A2.305,2.305,0,0,0,27.691,6.923Z" fill="#002b42"/>
</svg>
