<svg xmlns="http://www.w3.org/2000/svg" width="31.262" height="35.728" viewBox="0 0 31.262 35.728">
  <path id="calendar-arrow-up-regular" d="M8.932,0a1.671,1.671,0,0,1,1.675,1.675V4.466H20.655V1.675a1.675,1.675,0,1,1,3.349,0V4.466H26.8a4.47,4.47,0,0,1,4.466,4.466v22.33A4.47,4.47,0,0,1,26.8,35.728H4.466A4.47,4.47,0,0,1,0,31.262V8.932A4.47,4.47,0,0,1,4.466,4.466H7.257V1.675A1.671,1.671,0,0,1,8.932,0Zm18.98,13.4H3.349V31.262a1.12,1.12,0,0,0,1.116,1.116H26.8a1.12,1.12,0,0,0,1.116-1.116ZM13.956,28.471V21.346l-2.721,2.721A1.673,1.673,0,0,1,8.869,21.7l5.582-5.582a1.668,1.668,0,0,1,2.366,0L22.4,21.7a1.673,1.673,0,1,1-2.366,2.366l-2.721-2.721v7.125a1.675,1.675,0,1,1-3.349,0Z" fill="#002a40"/>
</svg>
