<svg xmlns="http://www.w3.org/2000/svg" width="27.918" height="31.907" viewBox="0 0 27.918 31.907">
  <path id="calendar-day-regular" d="M7.977,0a1.492,1.492,0,0,1,1.5,1.5V3.988h8.974V1.5a1.5,1.5,0,1,1,2.991,0V3.988H23.93a3.992,3.992,0,0,1,3.988,3.988V27.918a3.992,3.992,0,0,1-3.988,3.988H3.988A3.992,3.992,0,0,1,0,27.918V7.977A3.992,3.992,0,0,1,3.988,3.988H6.481V1.5A1.492,1.492,0,0,1,7.977,0Zm16.95,11.965H2.991V27.918a1,1,0,0,0,1,1H23.93a1,1,0,0,0,1-1ZM6.98,15.953h5.982a1,1,0,0,1,1,1v5.982a1,1,0,0,1-1,1H6.98a1,1,0,0,1-1-1V16.95A1,1,0,0,1,6.98,15.953Z" fill="#002a40"/>
</svg>
