<svg xmlns="http://www.w3.org/2000/svg" width="19.124" height="16.734" viewBox="0 0 19.124 16.734">
  <path id="chart-line-up-light_2_" data-name="chart-line-up-light (2)" d="M1.2,45.746a1.793,1.793,0,0,0,1.793,1.793H18.527a.6.6,0,0,1,0,1.2H2.988A2.988,2.988,0,0,1,0,45.746V32.6a.6.6,0,0,1,1.2,0ZM12.55,35.586h4.781a.6.6,0,0,1,.6.6v4.781a.6.6,0,1,1-1.2,0V37.625l-4.359,4.359a.593.593,0,0,1-.844,0l-3.2-3.164L4.605,42.582a.6.6,0,1,1-.844-.844l4.183-4.183a.593.593,0,0,1,.844,0l3.164,3.164,3.937-3.937H12.55a.6.6,0,1,1,0-1.2Z" transform="translate(0 -32)" fill="#fff"/>
</svg>
