<svg xmlns="http://www.w3.org/2000/svg" width="15.024" height="13.169" viewBox="0 0 15.024 13.169">
  <path id="comment-light_1_" data-name="comment-light (1)" d="M7.525,32.941c3.63,0,6.558,2.322,6.558,5.173s-2.928,5.173-6.558,5.173a8.135,8.135,0,0,1-2.447-.375.931.931,0,0,0-.825.128,6.271,6.271,0,0,1-3.019,1.166,8.826,8.826,0,0,0,1.2-2.046l0-.01a.941.941,0,0,0-.189-.965,4.5,4.5,0,0,1-1.3-3.071C.942,35.263,3.9,32.941,7.525,32.941Zm0-.941C3.371,32,0,34.737,0,38.114a5.388,5.388,0,0,0,1.555,3.71A7.4,7.4,0,0,1,.193,43.977a.706.706,0,0,0,.512,1.192,7.228,7.228,0,0,0,4.089-1.36,9.154,9.154,0,0,0,2.731.419c4.156,0,7.5-2.738,7.5-6.114S11.681,32,7.525,32Z" transform="translate(0 -32)" fill="#002a40"/>
</svg>
