<svg id="Group_2261" data-name="Group 2261" xmlns="http://www.w3.org/2000/svg" width="28.369" height="22.695" viewBox="0 0 28.369 22.695">
  <path id="comments-light" d="M18.433,7.8c0-4.309-4.127-7.8-9.22-7.8S-.006,3.493-.006,7.8A7.056,7.056,0,0,0,2.008,12.66,11.647,11.647,0,0,1,.281,15.247a1.051,1.051,0,0,0,.761,1.774,10.227,10.227,0,0,0,5.581-1.736,10.82,10.82,0,0,0,2.59.318C14.307,15.6,18.433,12.11,18.433,7.8Zm-9.22,6.383a9.379,9.379,0,0,1-2.25-.276l-.6-.149-.519.341a9.067,9.067,0,0,1-3.983,1.461,12.657,12.657,0,0,0,1.429-2.3l.41-.874-.661-.7A5.624,5.624,0,0,1,1.412,7.8c0-3.52,3.462-6.383,7.8-6.383s7.8,2.863,7.8,6.383S13.513,14.184,9.213,14.184ZM26.873,19.3a7.312,7.312,0,0,0,1.489-4.406c0-4.309-3.812-7.8-8.511-7.8l-.041,0c.019.233.041.468.041.707s-.021.477-.042.713c.015,0,.028,0,.042,0,3.91,0,7.092,2.863,7.092,6.383a5.907,5.907,0,0,1-1.208,3.558l-.58.774.509.822a13.815,13.815,0,0,0,.825,1.185,8.529,8.529,0,0,1-2.407-.625l-.563-.235-.558.246a7.674,7.674,0,0,1-3.112.657,6.981,6.981,0,0,1-6.866-4.863,11.754,11.754,0,0,1-1.383.367A8.366,8.366,0,0,0,19.852,22.7a9.1,9.1,0,0,0,3.684-.777,9.706,9.706,0,0,0,3.776.777,1.05,1.05,0,0,0,.761-1.773A12.11,12.11,0,0,1,26.873,19.3Z" transform="translate(0.007)" fill="#fff"/>
</svg>
