<svg xmlns="http://www.w3.org/2000/svg" xmlns:xlink="http://www.w3.org/1999/xlink" width="210.373" height="176.323" viewBox="0 0 210.373 176.323">
  <defs>
    <clipPath id="clip-path">
      <path id="Path_612" data-name="Path 612" d="M2742.815,210.719V297.71l-37.24,82.583s148.412,1.4,149.163,0S2841.3,222.64,2841.3,222.64Z" transform="translate(-1990 53)" fill="none" stroke="#707070" stroke-width="1"/>
    </clipPath>
    <clipPath id="clip-path-2">
      <path id="Path_613" data-name="Path 613" d="M2702.995,387.042l38.311-83.091-73.809-74.7-23.1,118.636Z" transform="translate(-1990 53)" fill="none" stroke="#707070" stroke-width="1"/>
    </clipPath>
  </defs>
  <g id="Group_3205" data-name="Group 3205" transform="translate(-138.893 -634.616)">
    <g id="Ellipse_232" data-name="Ellipse 232" transform="translate(162.498 648.897)" fill="none" stroke="#c00f00" stroke-width="8">
      <circle cx="75" cy="75" r="75" stroke="none"/>
      <circle cx="75" cy="75" r="71" fill="none"/>
    </g>
    <g id="Group_3204" data-name="Group 3204">
      <path id="truck-light_1_" data-name="truck-light (1)" d="M3.123,19.972A3.1,3.1,0,0,1,0,16.9V3.073A3.1,3.1,0,0,1,3.123,0H17.177A3.1,3.1,0,0,1,20.3,3.073V4.609h3.187a2.345,2.345,0,0,1,1.776.807L29.1,9.823a2.275,2.275,0,0,1,.566,1.5v7.115h.781a.768.768,0,1,1,0,1.536H28.108a4.685,4.685,0,0,1-9.369,0h-6.29a4.621,4.621,0,0,1-4.685,4.609,4.648,4.648,0,0,1-4.685-4.609ZM1.562,3.073V16.9a1.548,1.548,0,0,0,1.562,1.536H3.39a4.711,4.711,0,0,1,8.834,0h6.515V3.073a1.548,1.548,0,0,0-1.562-1.536H3.123A1.549,1.549,0,0,0,1.562,3.073Zm26.3,7.682-3.782-4.34a.84.84,0,0,0-.59-.269H20.3v4.609ZM20.3,12.291v4.244a4.626,4.626,0,0,1,3.123-1.171,4.675,4.675,0,0,1,4.416,3.073h.268V12.291ZM7.808,16.9a3.073,3.073,0,1,0,3.123,3.073A3.1,3.1,0,0,0,7.808,16.9Zm15.615,6.145A3.073,3.073,0,1,0,20.3,19.972,3.1,3.1,0,0,0,23.423,23.045Z" transform="translate(221.883 676.61)" fill="#002b42"/>
      <text id="_28" data-name="28" transform="translate(195.498 760.897)" fill="#052b48" font-size="74" font-family="Roboto-Bold, Roboto" font-weight="700"><tspan x="0" y="0">28</tspan></text>
      <g id="Mask_Group_5" data-name="Mask Group 5" transform="translate(-515.502 370.897)" clip-path="url(#clip-path)">
        <g id="Ellipse_233" data-name="Ellipse 233" transform="translate(678 278)" fill="none" stroke="#59ba7a" stroke-width="8">
          <circle cx="75" cy="75" r="75" stroke="none"/>
          <circle cx="75" cy="75" r="71" fill="none"/>
        </g>
      </g>
      <g id="Mask_Group_6" data-name="Mask Group 6" transform="translate(-515.502 370.897)" clip-path="url(#clip-path-2)">
        <g id="Ellipse_234" data-name="Ellipse 234" transform="translate(678 278)" fill="none" stroke="#072f4a" stroke-width="8">
          <circle cx="75" cy="75" r="75" stroke="none"/>
          <circle cx="75" cy="75" r="71" fill="none"/>
        </g>
      </g>
    </g>
  </g>
</svg>
