<svg xmlns="http://www.w3.org/2000/svg" width="18.375" height="18.375" viewBox="0 0 18.375 18.375">
  <path id="circle-question-light" d="M9.188,0a9.188,9.188,0,1,0,9.188,9.188A9.187,9.187,0,0,0,9.188,0Zm0,17.227a8.039,8.039,0,1,1,8.039-8.039A8.049,8.049,0,0,1,9.188,17.227Zm-.574-4.881a.861.861,0,1,0,.861.861A.862.862,0,0,0,8.613,12.346ZM10.25,4.594H8.125A2.386,2.386,0,0,0,5.742,6.977v.345a.574.574,0,1,0,1.148,0V6.977A1.235,1.235,0,0,1,8.125,5.742h2.126a1.235,1.235,0,0,1,.621,2.3L8.7,9.127a1.3,1.3,0,0,0-.664,1.131v.653a.574.574,0,0,0,1.148,0v-.653a.143.143,0,0,1,.052-.114l2.168-1.085A2.382,2.382,0,0,0,10.25,4.594Z" fill="#fff"/>
</svg>
