<svg xmlns="http://www.w3.org/2000/svg" width="33.157" height="32.621" viewBox="0 0 33.157 32.621">
  <path id="circle-dollar-light" d="M17.614,9.111a13.572,13.572,0,0,1,2.564.529c.1.025.2.051.3.083a1.013,1.013,0,0,1,.725,1.255,1.035,1.035,0,0,1-1.276.707c-.155-.038-.311-.083-.466-.127a7.2,7.2,0,0,0-1.477-.357,6.158,6.158,0,0,0-3.193.325c-.835.357-1.2.835-1.282,1.242a1.246,1.246,0,0,0,.661,1.383,12.253,12.253,0,0,0,2.972,1.07l.013-.051A14.52,14.52,0,0,1,20.678,16.6a3.467,3.467,0,0,1,1.528,3.606,3.733,3.733,0,0,1-2.454,2.778,6.877,6.877,0,0,1-2.137.446v1.542a1.036,1.036,0,0,1-2.072,0v-1.65a18.664,18.664,0,0,1-2.1-.535c-.447-.134-.894-.274-1.392-.414a1.074,1.074,0,0,1-.6-1.344,1.059,1.059,0,0,1,1.308-.593c.427.083.861.274,1.289.4a17.775,17.775,0,0,0,1.82.471,6.272,6.272,0,0,0,3.115-.21,1.706,1.706,0,0,0,1.185-1.262,1.418,1.418,0,0,0-.661-1.555A8.857,8.857,0,0,0,16.85,17.26a1.638,1.638,0,0,1-.447-.178,11.132,11.132,0,0,1-3.348-1.217,3.562,3.562,0,0,1-1.328-1.376,3.208,3.208,0,0,1-.259-2.09,3.915,3.915,0,0,1,2.5-2.746,7.222,7.222,0,0,1,1.515-.446V7.646A1.071,1.071,0,0,1,16.52,6.626a1.046,1.046,0,0,1,1.094,1.019Zm15.542,7.2a16.445,16.445,0,0,1-16.578,16.31A16.445,16.445,0,0,1,0,16.31,16.445,16.445,0,0,1,16.578,0,16.445,16.445,0,0,1,33.157,16.31ZM16.578,2.039A14.391,14.391,0,0,0,2.072,16.31,14.391,14.391,0,0,0,16.578,30.582,14.391,14.391,0,0,0,31.084,16.31,14.391,14.391,0,0,0,16.578,2.039Z" fill="#002b42"/>
</svg>
