<svg xmlns="http://www.w3.org/2000/svg" width="20.514" height="20.524" viewBox="0 0 20.514 20.524">
  <path id="down-left-and-up-right-to-center-regular" d="M36.185,16.3a1.026,1.026,0,0,0-1.451,0l-3.48,3.48-2.011-2.011a1.368,1.368,0,0,0-.968-.4,1.382,1.382,0,0,0-.523.1,1.368,1.368,0,0,0-.844,1.264v5.777a.994.994,0,0,0,1.026.988h5.815a1.368,1.368,0,0,0,.967-2.335l-2.011-2.011,3.48-3.48A.884.884,0,0,0,36.185,16.3ZM24.512,26.945H18.7a1.367,1.367,0,0,0-1.264.844,1.453,1.453,0,0,0,.335,1.49l2.011,2.011L16.3,34.77a1.026,1.026,0,0,0,1.451,1.451l3.48-3.48,2.011,2.011a1.368,1.368,0,0,0,.968.4,1.386,1.386,0,0,0,.524-.1,1.368,1.368,0,0,0,.844-1.264V27.971A1.058,1.058,0,0,0,24.512,26.945Z" transform="translate(-15.999 -15.999)" fill="#fff"/>
</svg>
