<svg xmlns="http://www.w3.org/2000/svg" width="19.62" height="14.715" viewBox="0 0 19.62 14.715">
  <path id="envelope-light_1_" data-name="envelope-light (1)" d="M2.452,65.226a1.225,1.225,0,0,0-1.226,1.226v1.529l7.5,5.5a1.84,1.84,0,0,0,2.177,0l7.5-5.5V66.452a1.225,1.225,0,0,0-1.226-1.226ZM1.226,69.5v6.76a1.225,1.225,0,0,0,1.226,1.226H17.167a1.225,1.225,0,0,0,1.226-1.226V69.5l-6.771,4.962a3.071,3.071,0,0,1-3.625,0ZM0,66.452A2.455,2.455,0,0,1,2.452,64H17.167a2.455,2.455,0,0,1,2.452,2.452v9.81a2.455,2.455,0,0,1-2.452,2.452H2.452A2.455,2.455,0,0,1,0,76.262Z" transform="translate(0 -64)" fill="#fff"/>
</svg>
