<svg xmlns="http://www.w3.org/2000/svg" width="14.088" height="18.784" viewBox="0 0 14.088 18.784">
  <path id="file-light" d="M0,2.348A2.348,2.348,0,0,1,2.348,0H8.075A1.768,1.768,0,0,1,9.322.516l4.248,4.25a1.77,1.77,0,0,1,.517,1.247V16.436a2.35,2.35,0,0,1-2.348,2.348H2.348A2.349,2.349,0,0,1,0,16.436Zm12.914,4.7H8.8A1.761,1.761,0,0,1,7.044,5.283V1.174h-4.7A1.174,1.174,0,0,0,1.174,2.348V16.436A1.173,1.173,0,0,0,2.348,17.61H11.74a1.173,1.173,0,0,0,1.174-1.174ZM12.741,5.6,8.489,1.346a.57.57,0,0,0-.271-.154V5.283A.589.589,0,0,0,8.8,5.87H12.9A.56.56,0,0,0,12.741,5.6Z" fill="#fff"/>
</svg>
