<svg xmlns="http://www.w3.org/2000/svg" width="14.434" height="19.246" viewBox="0 0 14.434 19.246">
  <path id="file-arrow-up-light" d="M13.731,4.71l-4-4A2.408,2.408,0,0,0,8.025,0H2.406A2.406,2.406,0,0,0,0,2.406V16.84a2.406,2.406,0,0,0,2.406,2.406h9.623a2.406,2.406,0,0,0,2.406-2.406V6.409A2.4,2.4,0,0,0,13.731,4.71ZM8.42,1.281a1.185,1.185,0,0,1,.456.274l4,4a1.128,1.128,0,0,1,.274.456H9.021a.6.6,0,0,1-.6-.6ZM13.231,16.84a1.2,1.2,0,0,1-1.2,1.2H2.406a1.2,1.2,0,0,1-1.2-1.2V2.406a1.2,1.2,0,0,1,1.2-1.2H7.217v4.21a1.8,1.8,0,0,0,1.8,1.8h4.21ZM6.792,8.6,3.785,11.6a.6.6,0,0,0,.85.85l1.98-1.982v4.563a.6.6,0,0,0,1.2,0V10.472L9.8,12.453a.6.6,0,1,0,.85-.849L7.642,8.6A.6.6,0,0,0,6.792,8.6Z" fill="#fff"/>
</svg>
