<svg xmlns="http://www.w3.org/2000/svg" width="25.475" height="25.475" viewBox="0 0 25.475 25.475">
  <path id="gauge-max-light" d="M12.737,3.582a1.194,1.194,0,1,1-1.194,1.194A1.193,1.193,0,0,1,12.737,3.582Zm0,10.747a3.164,3.164,0,0,1,2.234.916l5.319-3.189a.794.794,0,1,1,.816,1.363l-5.314,3.189a3.211,3.211,0,1,1-3.1-2.279Zm-1.592,3.184a1.592,1.592,0,1,0,1.592-1.592A1.59,1.59,0,0,0,11.145,17.514ZM18.31,5.971a1.194,1.194,0,1,1-1.194,1.194A1.191,1.191,0,0,1,18.31,5.971ZM4.777,13.932a1.194,1.194,0,1,1,1.194-1.194A1.193,1.193,0,0,1,4.777,13.932ZM7.165,5.971A1.194,1.194,0,1,1,5.971,7.165,1.191,1.191,0,0,1,7.165,5.971Zm5.573,19.5A12.737,12.737,0,1,1,25.475,12.737,12.737,12.737,0,0,1,12.737,25.475ZM23.883,12.737A11.145,11.145,0,1,0,12.737,23.883,11.146,11.146,0,0,0,23.883,12.737Z" fill="#002a40"/>
</svg>
