<svg xmlns="http://www.w3.org/2000/svg" width="19.07" height="19.07" viewBox="0 0 19.07 19.07">
  <path id="gauge-max-light" d="M9.535,2.682a.894.894,0,1,1-.894.894A.893.893,0,0,1,9.535,2.682Zm0,8.045a2.368,2.368,0,0,1,1.672.685l3.982-2.388a.595.595,0,1,1,.611,1.021l-3.978,2.388A2.4,2.4,0,1,1,9.5,10.727ZM8.343,13.111a1.192,1.192,0,1,0,1.192-1.192A1.191,1.191,0,0,0,8.343,13.111ZM13.707,4.47a.894.894,0,1,1-.894.894A.892.892,0,0,1,13.707,4.47ZM3.576,10.429a.894.894,0,1,1,.894-.894A.893.893,0,0,1,3.576,10.429ZM5.364,4.47a.894.894,0,1,1-.894.894A.892.892,0,0,1,5.364,4.47Zm4.172,14.6A9.535,9.535,0,1,1,19.07,9.535,9.534,9.534,0,0,1,9.535,19.07Zm8.343-9.535a8.343,8.343,0,1,0-8.343,8.343A8.344,8.344,0,0,0,17.878,9.535Z" fill="#fff"/>
</svg>
