<svg xmlns="http://www.w3.org/2000/svg" width="18.651" height="19.803" viewBox="0 0 18.651 19.803">
  <path id="gear-light" d="M20.812,9.867a3.4,3.4,0,1,1,3.4,3.438A3.426,3.426,0,0,1,20.812,9.867Zm3.4-2.166A2.19,2.19,0,0,0,22.05,9.867a2.166,2.166,0,0,0,4.332,0A2.19,2.19,0,0,0,24.216,7.7ZM16.854,8.919,15.294,7.5a1.234,1.234,0,0,1-.238-1.532l1.17-2.027a1.237,1.237,0,0,1,1.447-.56l2.01.641a7.438,7.438,0,0,1,1.7-.985l.453-2.06A1.237,1.237,0,0,1,23.047,0h2.336a1.237,1.237,0,0,1,1.211.973l.453,2.06a8.259,8.259,0,0,1,1.7.985l2.011-.641a1.236,1.236,0,0,1,1.447.56l1.168,2.027A1.236,1.236,0,0,1,33.139,7.5L31.576,8.919a7.369,7.369,0,0,1,.066.948,7.621,7.621,0,0,1-.066,1.017l1.563,1.423a1.236,1.236,0,0,1,.236,1.532l-1.168,2.027a1.241,1.241,0,0,1-1.447.561l-2.011-.642a8.462,8.462,0,0,1-1.7.986l-.453,2.058a1.238,1.238,0,0,1-1.211.975H23.047a1.238,1.238,0,0,1-1.211-.975l-.453-2.058a7.6,7.6,0,0,1-1.7-.986l-2.01.642a1.242,1.242,0,0,1-1.447-.561l-1.17-2.027a1.234,1.234,0,0,1,.238-1.532l1.56-1.423a7.629,7.629,0,0,1-.065-1.017,7.363,7.363,0,0,1,.065-.948ZM20.441,5l-.514.4L17.3,4.556l-1.17,2.027,2.038,1.857-.085.642a6.09,6.09,0,0,0-.054.785,6.361,6.361,0,0,0,.054.855l.085.642L16.128,13.22l1.17,2.027,2.629-.839.514.4a4.99,4.99,0,0,0,1.416.785l.6.282.592,2.692h2.336l.592-2.692.565-.282a4.737,4.737,0,0,0,1.45-.785l.514-.4,2.63.839L32.3,13.22l-2.038-1.857.085-.642a6.235,6.235,0,0,0,0-1.64l-.085-.642L32.3,6.583,31.135,4.556,28.5,5.4,27.99,5a5.708,5.708,0,0,0-1.45-.82l-.565-.248-.592-2.692H23.047L22.456,3.93l-.6.248A6.143,6.143,0,0,0,20.441,5Z" transform="translate(-14.89)" fill="#fff"/>
</svg>
