<svg id="list-light" xmlns="http://www.w3.org/2000/svg" width="26" height="26" viewBox="0 0 26 26">
  <path id="grid-light" d="M5.107,32a2.321,2.321,0,0,1,2.321,2.321v2.786a2.321,2.321,0,0,1-2.321,2.321H2.321A2.321,2.321,0,0,1,0,37.107V34.321A2.322,2.322,0,0,1,2.321,32Zm0,1.857H2.321a.464.464,0,0,0-.464.464v2.786a.465.465,0,0,0,.464.464H5.107a.465.465,0,0,0,.464-.464V34.321A.464.464,0,0,0,5.107,33.857Zm0,7.429a2.321,2.321,0,0,1,2.321,2.321v2.786a2.321,2.321,0,0,1-2.321,2.321H2.321A2.321,2.321,0,0,1,0,46.393V43.607a2.321,2.321,0,0,1,2.321-2.321Zm0,1.857H2.321a.465.465,0,0,0-.464.464v2.786a.465.465,0,0,0,.464.464H5.107a.465.465,0,0,0,.464-.464V43.607A.465.465,0,0,0,5.107,43.143ZM0,52.893a2.321,2.321,0,0,1,2.321-2.321H5.107a2.321,2.321,0,0,1,2.321,2.321v2.786A2.321,2.321,0,0,1,5.107,58H2.321A2.321,2.321,0,0,1,0,55.679Zm1.857,0v2.786a.465.465,0,0,0,.464.464H5.107a.465.465,0,0,0,.464-.464V52.893a.465.465,0,0,0-.464-.464H2.321A.465.465,0,0,0,1.857,52.893ZM14.393,32a2.321,2.321,0,0,1,2.321,2.321v2.786a2.321,2.321,0,0,1-2.321,2.321H11.607a2.321,2.321,0,0,1-2.321-2.321V34.321A2.321,2.321,0,0,1,11.607,32Zm0,1.857H11.607a.465.465,0,0,0-.464.464v2.786a.466.466,0,0,0,.464.464h2.786a.466.466,0,0,0,.464-.464V34.321A.465.465,0,0,0,14.393,33.857Zm-5.107,9.75a2.321,2.321,0,0,1,2.321-2.321h2.786a2.321,2.321,0,0,1,2.321,2.321v2.786a2.321,2.321,0,0,1-2.321,2.321H11.607a2.321,2.321,0,0,1-2.321-2.321Zm1.857,0v2.786a.466.466,0,0,0,.464.464h2.786a.466.466,0,0,0,.464-.464V43.607a.466.466,0,0,0-.464-.464H11.607A.466.466,0,0,0,11.143,43.607Zm3.25,6.964a2.321,2.321,0,0,1,2.321,2.321v2.786A2.321,2.321,0,0,1,14.393,58H11.607a2.321,2.321,0,0,1-2.321-2.321V52.893a2.321,2.321,0,0,1,2.321-2.321Zm0,1.857H11.607a.466.466,0,0,0-.464.464v2.786a.466.466,0,0,0,.464.464h2.786a.466.466,0,0,0,.464-.464V52.893A.466.466,0,0,0,14.393,52.429Zm4.179-18.107A2.321,2.321,0,0,1,20.893,32h2.786A2.321,2.321,0,0,1,26,34.321v2.786a2.321,2.321,0,0,1-2.321,2.321H20.893a2.321,2.321,0,0,1-2.321-2.321Zm1.857,0v2.786a.466.466,0,0,0,.464.464h2.786a.466.466,0,0,0,.464-.464V34.321a.465.465,0,0,0-.464-.464H20.893A.465.465,0,0,0,20.429,34.321Zm3.25,6.964A2.321,2.321,0,0,1,26,43.607v2.786a2.321,2.321,0,0,1-2.321,2.321H20.893a2.321,2.321,0,0,1-2.321-2.321V43.607a2.321,2.321,0,0,1,2.321-2.321Zm0,1.857H20.893a.466.466,0,0,0-.464.464v2.786a.466.466,0,0,0,.464.464h2.786a.466.466,0,0,0,.464-.464V43.607A.466.466,0,0,0,23.679,43.143Zm-5.107,9.75a2.321,2.321,0,0,1,2.321-2.321h2.786A2.321,2.321,0,0,1,26,52.893v2.786A2.321,2.321,0,0,1,23.679,58H20.893a2.321,2.321,0,0,1-2.321-2.321Zm1.857,0v2.786a.466.466,0,0,0,.464.464h2.786a.466.466,0,0,0,.464-.464V52.893a.466.466,0,0,0-.464-.464H20.893A.466.466,0,0,0,20.429,52.893Z" transform="translate(0 -32)" fill="#002a40"/>
</svg>
