<svg xmlns="http://www.w3.org/2000/svg" width="19.588" height="17.417" viewBox="0 0 19.588 17.417">
  <path id="house-chimney-light" d="M9.436.136a.546.546,0,0,1,.721,0L13.062,2.7V1.9a.842.842,0,0,1,.816-.847H16.6a.842.842,0,0,1,.816.847V6.541L19.41,8.3a.519.519,0,0,1,.017.769.485.485,0,0,1-.738.017L17.416,7.963V14.7A2.721,2.721,0,0,1,14.7,17.417H4.9A2.721,2.721,0,0,1,2.177,14.7V7.963L.9,9.086a.52.52,0,0,1-.768-.017A.543.543,0,0,1,.184,8.3Zm6.892,5.446V2.177H14.151V3.66ZM3.265,7.031V14.7A1.633,1.633,0,0,0,4.9,16.328H7.075V10.885A1.087,1.087,0,0,1,8.164,9.8h3.266a1.087,1.087,0,0,1,1.089,1.089v5.443H14.7A1.633,1.633,0,0,0,16.328,14.7V7.031L9.8,1.27Zm4.9,3.854v5.443h3.266V10.885Z" transform="translate(0)" fill="#fff"/>
</svg>
