<svg xmlns="http://www.w3.org/2000/svg" width="32.621" height="32.621" viewBox="0 0 32.621 32.621">
  <path id="circle-dollar-light" d="M17.33,9.111a13.165,13.165,0,0,1,2.523.529c.1.025.2.051.293.083a1.018,1.018,0,1,1-.542,1.962c-.153-.038-.306-.083-.459-.127a6.986,6.986,0,0,0-1.453-.357,5.967,5.967,0,0,0-3.141.325c-.822.357-1.185.835-1.262,1.242a1.253,1.253,0,0,0,.65,1.383,11.931,11.931,0,0,0,2.924,1.07l.013-.051A14.156,14.156,0,0,1,20.343,16.6a3.491,3.491,0,0,1,1.5,3.606,3.713,3.713,0,0,1-2.415,2.778,6.672,6.672,0,0,1-2.1.446v1.542a1.019,1.019,0,0,1-2.039,0v-1.65a18.12,18.12,0,0,1-2.064-.535c-.44-.134-.879-.274-1.37-.414a1.079,1.079,0,0,1-.593-1.344,1.037,1.037,0,0,1,1.287-.593c.421.083.847.274,1.268.4a17.258,17.258,0,0,0,1.79.471,6.076,6.076,0,0,0,3.065-.21A1.7,1.7,0,0,0,19.84,19.84a1.427,1.427,0,0,0-.65-1.555,8.63,8.63,0,0,0-2.612-1.026,1.6,1.6,0,0,1-.44-.178,10.84,10.84,0,0,1-3.294-1.217,3.536,3.536,0,0,1-1.306-1.376,3.255,3.255,0,0,1-.255-2.09,3.892,3.892,0,0,1,2.459-2.746,7.019,7.019,0,0,1,1.491-.446V7.646a1.062,1.062,0,0,1,1.019-1.019A1.036,1.036,0,0,1,17.33,7.646Zm15.291,7.2A16.31,16.31,0,1,1,16.31,0,16.309,16.309,0,0,1,32.621,16.31ZM16.31,2.039A14.272,14.272,0,1,0,30.582,16.31,14.273,14.273,0,0,0,16.31,2.039Z" fill="#002a40"/>
</svg>
