<svg xmlns="http://www.w3.org/2000/svg" width="20.124" height="26.832" viewBox="0 0 20.124 26.832">
  <path id="file-light" d="M0,3.354A3.354,3.354,0,0,1,3.354,0h8.181a2.525,2.525,0,0,1,1.782.737l6.069,6.071a2.528,2.528,0,0,1,.739,1.782V23.478a3.357,3.357,0,0,1-3.354,3.354H3.354A3.355,3.355,0,0,1,0,23.478Zm18.447,6.708h-5.87a2.516,2.516,0,0,1-2.516-2.516V1.677H3.354A1.677,1.677,0,0,0,1.677,3.354V23.478a1.676,1.676,0,0,0,1.677,1.677H16.77a1.675,1.675,0,0,0,1.677-1.677ZM18.2,8,12.127,1.923a.814.814,0,0,0-.388-.221V7.547a.841.841,0,0,0,.839.839h5.843A.8.8,0,0,0,18.2,8Z" fill="#fff"/>
</svg>
