<svg xmlns="http://www.w3.org/2000/svg" width="23.054" height="30.739" viewBox="0 0 23.054 30.739">
  <path id="clipboard-list-light" d="M8.735,4.082a2.884,2.884,0,0,1,5.583,0,.957.957,0,0,0,.931.72H16.33a.963.963,0,0,1,.961.961V7.685H5.763V5.763A.963.963,0,0,1,6.724,4.8H7.8A.957.957,0,0,0,8.735,4.082ZM11.527,0a4.8,4.8,0,0,0-4.4,2.882h-.4A2.889,2.889,0,0,0,4,4.8H3.842A3.846,3.846,0,0,0,0,8.645V26.9a3.846,3.846,0,0,0,3.842,3.842H19.212A3.846,3.846,0,0,0,23.054,26.9V8.645A3.846,3.846,0,0,0,19.212,4.8h-.162a2.889,2.889,0,0,0-2.72-1.921h-.4A4.8,4.8,0,0,0,11.527,0Zm7.685,6.724a1.919,1.919,0,0,1,1.921,1.921V26.9a1.919,1.919,0,0,1-1.921,1.921H3.842A1.919,1.919,0,0,1,1.921,26.9V8.645A1.919,1.919,0,0,1,3.842,6.724v.961A1.919,1.919,0,0,0,5.763,9.606H17.29a1.919,1.919,0,0,0,1.921-1.921ZM12.488,4.8a.961.961,0,1,0-.961.961A.961.961,0,0,0,12.488,4.8ZM8.165,16.33a1.441,1.441,0,1,0-1.441,1.441A1.441,1.441,0,0,0,8.165,16.33Zm2.4-.961a.961.961,0,0,0,0,1.921H16.33a.961.961,0,1,0,0-1.921Zm0,5.763a.961.961,0,1,0,0,1.921H16.33a.961.961,0,1,0,0-1.921Zm-3.842,2.4a1.441,1.441,0,1,0-1.441-1.441,1.441,1.441,0,0,0,1.441,1.441Z" fill="#fff"/>
</svg>
