<svg xmlns="http://www.w3.org/2000/svg" width="38.247" height="30.598" viewBox="0 0 38.247 30.598">
  <path id="truck-light_1_" data-name="truck-light (1)" d="M3.825,24.861A3.826,3.826,0,0,1,0,21.036V3.825A3.824,3.824,0,0,1,3.825,0H21.036a3.826,3.826,0,0,1,3.825,3.825V5.737h3.9a2.852,2.852,0,0,1,2.175,1l4.7,5.486a2.858,2.858,0,0,1,.693,1.865v8.857h.956a.956.956,0,0,1,0,1.912H34.423a5.737,5.737,0,0,1-11.474,0h-7.7a5.737,5.737,0,0,1-11.474,0ZM1.912,3.825V21.036a1.911,1.911,0,0,0,1.912,1.912h.326a5.738,5.738,0,0,1,10.819,0h7.978V3.825a1.911,1.911,0,0,0-1.912-1.912H3.825A1.913,1.913,0,0,0,1.912,3.825Zm32.205,9.562-4.631-5.4a1.021,1.021,0,0,0-.723-.335h-3.9v5.737ZM24.861,15.3v5.283a5.613,5.613,0,0,1,3.825-1.458,5.731,5.731,0,0,1,5.408,3.825h.329V15.3Zm-15.3,5.737a3.825,3.825,0,1,0,3.825,3.825A3.828,3.828,0,0,0,9.562,21.036Zm19.124,7.649a3.825,3.825,0,1,0-3.825-3.825A3.828,3.828,0,0,0,28.685,28.685Z" fill="#002a40"/>
</svg>
