<svg xmlns="http://www.w3.org/2000/svg" width="273.505" height="171.072" viewBox="0 0 273.505 171.072">
  <g id="us_1_" data-name="us (1)" transform="translate(0.25 0.25)">
    <path id="Massachusetts" d="M926.454,131.863l-.1-.064v.1l.1-.032ZM925.5,131l.223-.1v-.127Zm3.952-2.486-.032-.446-.064-.255Zm-13.928-3.283-.223.1-1.817.542-.637.223-.733.223-.255.1v.1l.1,1.657.1,1.53.1,1.4.159.1.574-.159,2.582-.765.064.159,4.59-1.753.032.064.414-.159,1.466-.574,1.4,1.689h0l.191-.159.1-.478-.032.765H924l.1.382.287.542h0l1.5-1.817,1.243.414.287-.637,2.04-1.084-.861-1.689.223,1.084-1.052.8-1.179.1-2.358-2.518-1.052-1.594,1.052-1.115-1.084-.064-.446-1.052-.032-.064-1.817,1.976-4.016,1.339-1.307.414Z" transform="translate(-661.799 -88.774)" fill="#efefef" stroke="#fff" stroke-linejoin="round" stroke-width="0.5" fill-rule="evenodd"/>
    <path id="Minnesota" d="M558.547,67.784l.637,2.263,1.339,8.159.637,3.251.191,2.868.733,1.721.159,1.466.128.478-.032.1-1.275,2.1.829,1.4,1.594,11.219.064,1.466,1.593-.1,6.279-.351,15.68-1.307,1.562-.159V102.2l-.446-2.454-1.944-.988-1.53-1.594L582.323,95.7l-.765-.064-1.179-.892.319-4.4-1.115-1.02.382-1.785L582,85.7l-.351-3.825.733-.829h0l2.486-2.613,2.837-3.633,1.084-.765,1.912-.924,2.008-1.5-1.339.255-.8-.606-3.06.414-.478-.574L584.3,72.214l-2.2-.924-.605-.733-1.753.127-1.179-.606.382-.446-1.5-.478h-1.339l-2.135.924-.414-.637-3.378-.478L569.033,66.1l-.128-.86-1.466-.414.127,2.454-3.888.287-4.812.191Z" transform="translate(-424.499 -50.702)" fill="#efefef" stroke="#fff" stroke-linejoin="round" stroke-width="0.5" fill-rule="evenodd"/>
    <path id="Montana" d="M357.764,59.479l-10.549-.7-7.681-.733-7.649-.892-4.749-.637-7.585-1.179-3.793-.637-8.478-1.625-.892-.191-1.37,6.5.606,1.179.478,1.817-.287.255.606,1.657.829.7,2.358,3.952.223.669.956-.064-1.115,5.227-.446.127-.606,1.753,3.155.223.255,1.466,1.785,4.366.319.255,1.243,2.55.319-.255,2.645-.032,3.346.351.829-1.084.988,1.785.191.1.032-.191.446-3.123,10.9,1.339,8.7.829,4.589.382,8.191.478.414.032h.1l.032-.446.1-2.2.128-2.9.032-.733.064-1.275.51-10.007.414-7.776.032-1.275-.606-.032Z" transform="translate(-254.216 -42.683)" fill="#efefef" stroke="#fff" stroke-linejoin="round" stroke-width="0.5" fill-rule="evenodd"/>
    <path id="North_Dakota" data-name="North Dakota" d="M494.641,73.326l-9.625.191-6.725-.032-5.769-.127-6.757-.255-.351-.032-.032,1.275-.414,7.776-.51,10.007L464.4,93.4l1.243.064,14.055.382,12.971-.1,5.386-.159,1.084-.064-.127-.478-.159-1.466-.733-1.721L497.924,87l-.637-3.251-1.339-8.159-.637-2.263h-.669Z" transform="translate(-361.262 -56.243)" fill="#efefef" stroke="#fff" stroke-linejoin="round" stroke-width="0.5" fill-rule="evenodd"/>
    <path id="Idaho" d="M280.606,51.056l-2.836-.574-.924-.223-.414-.1-3.7,16.637.159,1.37-.127,1.434.064.319v.032l.032.606,1.084,1.179-1.562,3.92L269.069,80l-.1.8.861,2.04-3.028,12.557-.127.669.892.191,9.019,1.785,3.6.669.924.159.892.159,4.589.733L294.82,101l.924.127.128-1.052L296.159,98l1.084-8.286.574-4.111.128-1.052-.191-.1-.988-1.785-.829,1.084-3.346-.351-2.645.032-.319.255-1.243-2.55-.319-.255-1.785-4.366-.255-1.466-3.155-.223.605-1.753.446-.127,1.115-5.227-.956.064-.223-.669L281.5,63.167l-.829-.7-.606-1.657.287-.255-.478-1.817-.606-1.179,1.37-6.5h-.032Z" transform="translate(-228.465 -40.858)" fill="#efefef" stroke="#fff" stroke-linejoin="round" stroke-width="0.5" fill-rule="evenodd"/>
    <path id="Washington" d="M190.83,46.54l.032-.542-.064.032.032.51Zm6.788-2.9.191-.319-.223-.032Zm-.606-.574.191-.637-.191-.064Zm2.327-.924-.032-.637-.542.829ZM199.4,40.8l.1-.637-.064-.159-.032.8Zm.1-3.123-.032-.351-.127-.032.159.382Zm1.02-2.1-.287-.032-.574.892Zm-.8-.861.159-.127.032-.1Zm-.159.1-.1-.637-.287.542Zm-.159-.892-.287-.127.223.319Zm.956.542v-.414l-.1.159Zm.287-.414-.128-.1h-.032l.159.1Zm-1.817-.7-.159-.127-.064-.032Zm1.179-.127-.86.223.223.064Zm-.7-.064-.159-.191-.032.032.191.159Zm.669-.382h-.128l.159.064-.032-.064Zm-6.247,16.35,1.147,1.243-.191,2.39.223.606,1.721.924,4.844.446.191.574,2.295.032,2.167.287,3.538-.382,1.753.287.478-.223,8.956,2.04.606.127-.064-.319.128-1.434-.159-1.37,3.7-16.637-.51-.1-7.458-1.753-6.5-1.657-7.362-2.04-2.2-.542.51,2.773-.478.892-.861-.446.829,3.856-.892,1.275-.414,1.179v1.211l-1.88,1.307-.8-.51-.765.382,1.4-1.817-.351,1.243.8-.861.637.127-.191-1.594.414.064.861-1.912-.287-.287-1.115,1.434-.733.032.8-.892.892-.223-.319-1.625-.892-.223-.446-.765-.542.287-2.932-1.275-2.582-2.008-.7,1.944-.064.829.542,1.466-.351,4.749-.255.733,1.434.127-1.434,1.02.765.382-.606,2.04-.287-1.594-.542,1.849.733.892.8-.064.956.574.478.924h.574Z" transform="translate(-177.094 -28.406)" fill="#efefef" stroke="#fff" stroke-linejoin="round" stroke-width="0.5" fill-rule="evenodd"/>
    <path id="Arizona" d="M302.039,302.538,291.3,301.2l-5.769-.829-8.223-1.307-.829-.127V299l-1.4,6.183-.733-.032-1.115-.988-1.4,1.179-.032,5.067-.51,1.084v.128l-.064.8,1.115,3,.988,1.339-1.785,1.052-.7,1.307-1.147,2.8-.574.128-.032,2.327.988.733-.51,1.4-1.147.064h0l-.669,1.243,2.295,1.434,4.335,2.422,13.386,7.107,11.346,1.4h.127l.892-9.4.223-2.327,2.39-24.668.127-1.147Z" transform="translate(-229.183 -207.946)" fill="#efefef" stroke="#fff" stroke-linejoin="round" stroke-width="0.5" fill-rule="evenodd"/>
    <path id="California" d="M168.593,228.762l.127.7v.127l-.127-.829Zm-4.685-2.741.223.478.127-.032Zm5.577-.1.1.829.574.414Zm-3.856-4.526-.351-.1.287.127.064-.032Zm-3.538-.956-.86.51.223.223Zm-1.657-.606-.064.255.287.064-.223-.319Zm2.8.637,1.4.8.255-.223ZM152.371,192.4l-.032.032.032-.032Zm3.41.159-.032-.1v.127l.032-.032Zm18.389-24.19-1.243-.319-13.641-3.761-5.067-1.53v.127l-.287,3.155-1.339,3.729-2.231,2.773-.064,1.4,1.084,1.944.542,2.55-.765,2.072.127,2.072-.382.861,1.307,2.837.829,1.084-.064,3.091,1.976,1.88,1.147-1.912,1.243.988.478-.446-1.721.319-.032,1.625.351,2.04-.956-.924-.542-1.243-.159,1.721.446,3.41,1.785,2.2-1.179,1.53.191,1.944,1.275,1.976,2.231,6.119.7.382-.223,4.239.351.51,4.781,1.721,1.466,1.562.51,1.02,1.4.8,1.53.287.637,1.753,1.275.606,1.912,2.263,1.785,2.964-.127,2.741.988,1.307,13.035,1.275h0l1.147-.064.51-1.4-.988-.733.032-2.327.574-.127,1.147-2.8.7-1.307,1.785-1.052-.988-1.339-1.115-3,.064-.8v-.032l-.829-1.115-2.55-3.41-4.94-6.948-6.884-9.88-3.888-5.386-3.761-5.418,4.334-18.389.287-1.211Z" transform="translate(-150.3 -116.481)" fill="#efefef" stroke="#fff" stroke-linejoin="round" stroke-width="0.5" fill-rule="evenodd"/>
    <path id="Colorado" d="M412.445,237.882l.127-6.247-1.53-.064-7.776-.287-.765-.032-.637-.032-9.466-.606-6.31-.51-7.872-.765-.765-.1-.1.829-1.721,16.6-.606,5.8L374.773,255l-.064.829.988.1,16.063,1.4,7.075.446,7.043.319,1.02.032.637.032,1.339.032.637.032,2.008.064h.51v-.637l.351-16.86.032-1.88V238.3l.032-.414Z" transform="translate(-301.025 -161.137)" fill="#efefef" stroke="#fff" stroke-linejoin="round" stroke-width="0.5" fill-rule="evenodd"/>
    <path id="Nevada" d="M237.131,217.926l3.315-20.62,1.689-10.326.191-1.02-.924-.159-3.6-.669-9.019-1.785-.892-.191-.892-.191-4.494-.988-8.063-1.912-.892-.223-.287,1.211-4.334,18.389,3.761,5.418,3.888,5.386,6.884,9.88,4.94,6.948,2.55,3.41.829,1.116v-.1l.51-1.084.032-5.067,1.4-1.179,1.115.988.733.032,1.4-6.183v-.064l.159-1.02Z" transform="translate(-189.676 -127.955)" fill="#efefef" stroke="#fff" stroke-linejoin="round" stroke-width="0.5" fill-rule="evenodd"/>
    <path id="New_Mexico" data-name="New Mexico" d="M399.372,314.977l.032-.829.032-.829.032-.829-1.02-.032-7.043-.319-7.075-.446-16.063-1.4-.988-.1-.128,1.147-2.39,24.668-.223,2.327-.892,9.4.128.032,4.4.414.414-2.231.8-.637,8.924.8h.064l-.8-1.562,4.048.287,10.1.574,6.31.287,1.084-29.895.223.032.032-.861Z" transform="translate(-293.593 -215.508)" fill="#efefef" stroke="#fff" stroke-linejoin="round" stroke-width="0.5" fill-rule="evenodd"/>
    <path id="Oregon" d="M161.391,108.648l5.067,1.53,13.641,3.761,1.243.319.892.223,8.063,1.912,4.494.988.892.191.127-.669,3.028-12.557-.86-2.04.1-.8,3.315-4.334,1.562-3.92-1.084-1.179-.032-.606v-.032l-.606-.127-8.956-2.04-.478.223-1.753-.287-3.538.382-2.167-.287-2.295-.032-.191-.574-4.844-.446-1.721-.924-.223-.606.191-2.39-1.147-1.243-.1.032-.223.159L172.2,82.45l-.956.287-.637-.319-.669,2.741-.446.765-1.976,4.812-.574,2.645-.351.032-1.848,4.4-1.243,1.88-.446.319-1.147,2.231-.223,2.358-.7,2.1.414,1.912v.032Zm11.665-26.166-.1-.287-.032.223.127.064Z" transform="translate(-157.471 -62.371)" fill="#efefef" stroke="#fff" stroke-linejoin="round" stroke-width="0.5" fill-rule="evenodd"/>
    <path id="Utah" d="M313.4,200.612l-8.223-1.243-4.589-.733-.892-.159-.191,1.02-1.689,10.326-3.315,20.62-.159,1.02.829.128,8.223,1.307,5.769.829,10.74,1.339.829.1.064-.829.255-2.518.605-5.8,1.721-16.6.1-.829-.637-.064-8.127-.988-1.243-.159.8-6.215.064-.414-.924-.127Z" transform="translate(-247.045 -140.471)" fill="#efefef" stroke="#fff" stroke-linejoin="round" stroke-width="0.5" fill-rule="evenodd"/>
    <path id="Wyoming" d="M388.306,160.353l.255-4.972.319-6.693.032-.829-.414-.032-8.191-.478-4.589-.382-8.7-.829-10.9-1.339-.446,3.123-.032.191-.127,1.052-.574,4.111-1.084,8.286-.287,2.072-.127,1.052-.064.414-.8,6.215,1.243.159,8.127.988.637.064.765.1,7.872.765,6.31.51L387,174.5l.637.032.032-.829.159-3.346.287-5.832.128-2.486.032-.829.032-.861Z" transform="translate(-286.161 -104.42)" fill="#efefef" stroke="#fff" stroke-linejoin="round" stroke-width="0.5" fill-rule="evenodd"/>
    <path id="Arkansas" d="M636.151,321.993l-3.442.51,1.4-2.231-.606-1.243-12.143,1.179-10.262.829-1.5.1.191.892,1.243,6.438.032,1.434.351,8.669.032,1.434.1.032.478.51,1.912-.064.191,2.8.064.8.988-.1,3.028-.223,12.015-1.115h.064l-.032-.7.319-.223L630,340.637l1.211-5.1-.478-.574,1.817-2.008-.127-1.721L633.76,329v-.032l-.064-.064,1.147-1.052-.319-1.275.892-1.4-.191-1.307.956-1.849v-.032h-.032Z" transform="translate(-458.79 -221.44)" fill="#efefef" stroke="#fff" stroke-linejoin="round" stroke-width="0.5" fill-rule="evenodd"/>
    <path id="Iowa" d="M601.228,185.248l-1.753-.924-.956-1.307-.319-1.88.255-.86-.924-1.116h0l-1.562.159-15.68,1.307-6.279.351-1.593.1-.669.032.542,3.538-.446,1.689.7,1.052v.223l.223.032,1.02,3,.988,1.562.064,1.785,1.084,1.5-.191.637.988,4.016v.1h0l6.534-.191,6.98-.606,6.852-.86,1.562,1.37.064.064.287-.127-.223-1.243,1.179-.733.478-3.251-.478-.223.287-1.657,1.434-.287,1.594-1.147.7-2.008.032-1.02-1.275-1.211-.382-.765-1.211-.765.064-.159.032-.159Z" transform="translate(-433.365 -127.498)" fill="#efefef" stroke="#fff" stroke-linejoin="round" stroke-width="0.5" fill-rule="evenodd"/>
    <path id="Kansas" d="M527.954,274.061l-.8-13.481-1.434-.829-.127-.637-1.147-1.02,1.115-1.37-.446-.8-.829.032-.765-.542-.319-.255-1.084.064-11.76.446-5.386.127H494.267l-4.3-.064-1.211-.032v.606l-.032,1.88-.351,16.86v.637l1.37.032,7.394.1,17.306-.255,12.334-.574,1.211-.1Z" transform="translate(-377.365 -178.544)" fill="#efefef" stroke="#fff" stroke-linejoin="round" stroke-width="0.5" fill-rule="evenodd"/>
    <path id="Missouri" d="M608.751,239.643l-1.562-1.37-6.852.861-6.98.606-6.534.191h0l-.032.191.8,1.53.733.51.86,1.53.127.128.319.255.765.542.829-.032.446.8-1.116,1.37,1.147,1.02.127.637,1.434.829.8,13.481.032.829.064.829.032.829.064.861.032.829,1.5-.1,10.262-.829,12.143-1.179.606,1.243-1.4,2.231,3.442-.51h.032V267.5l.064-1.466.638-.8-.191-.892-.032-.032-.032-.032.128-.414.191.064.1.255-.032.1v.287l.128.032.255-.319v-.032l.032-.1.829-.51.128-.064.287-2.613-.064-.127-.1-.032-2.263-1.849.351-.669-.637-1.817-1.147-.892-2.167-.956-1.371-1.115.159-2.295.414-2.135-2.295.128-.7-.733L613.213,247l-3.633-3.06-1.02-2.837.255-1.4h0l-.064-.064Z" transform="translate(-443.47 -167.2)" fill="#efefef" stroke="#fff" stroke-linejoin="round" stroke-width="0.5" fill-rule="evenodd"/>
    <path id="Nebraska" d="M496.446,198.039l-.988-.988-3.474-1.02L490.869,196l-1.689.478-2.008-1.275-6.279.064-9.147-.1-10.8-.351-.956-.032-.032.829-.127,2.486-.287,5.832-.159,3.346-.032.829.765.032,7.776.287,1.53.064-.127,6.247-.032.414,1.211.032,4.3.064h10.709l5.386-.127,11.76-.446,1.084-.064-.127-.128-.861-1.53-.733-.51-.8-1.53.032-.191v-.1l-.988-4.016.191-.637-1.084-1.5-.064-1.785-.988-1.562-1.02-3-.223-.032-.606-.064Z" transform="translate(-357.872 -137.994)" fill="#efefef" stroke="#fff" stroke-linejoin="round" stroke-width="0.5" fill-rule="evenodd"/>
    <path id="Oklahoma" d="M517.388,317.761l-.064-.861-.032-.829-.064-.829-1.211.1-12.334.574-17.306.255-7.394-.1-1.37-.032h-.51l-2.008-.064-.637-.032-1.339-.032-.637-.032-.032.829-.032.829-.032.829-.032.861h.191l7.713.191,8.159.1.1,10.9.574,1.912,1.275,1.211,1.37.064.287-.574,1.88,1.721,2.454.255.446.51.892-.414,2.231,1.052v.606l.829-.032.861-.733,1.594,1.02,1.5.542,1.02-1.4,3.251,1.53,1.211-.988.988-.382.8.191,3-.861,1.594.669,1.434.924,1.243.223h.032l-.032-1.434-.351-8.669-.032-1.434-1.243-6.438-.191-.892-.032-.829Z" transform="translate(-366.608 -218.898)" fill="#efefef" stroke="#fff" stroke-linejoin="round" stroke-width="0.5" fill-rule="evenodd"/>
    <path id="South_Dakota" data-name="South Dakota" d="M495.965,135.188l-5.386.159-12.971.1-14.055-.382L462.31,135l-.032.733-.127,2.9-.1,2.2-.032.446h-.1l-.032.829-.319,6.693-.255,4.972-.032.86.956.032,10.8.351,9.147.1,6.278-.064,2.008,1.275,1.689-.478,1.116.032,3.474,1.02.988.988.605.064v-.223l-.7-1.052.446-1.689-.542-3.538.669-.032-.064-1.466-1.594-11.219-.829-1.4,1.275-2.1.032-.1-1.084.064Z" transform="translate(-359.176 -97.836)" fill="#efefef" stroke="#fff" stroke-linejoin="round" stroke-width="0.5" fill-rule="evenodd"/>
    <path id="Louisiana" d="M645.06,416.672l-.414.1-.191.191.606-.287Zm1.339,0-.223-.1-.064.1Zm.765-.255h-.223l-.128.159Zm-.383-.223-.064-.1-.032.1Zm2.55-1.689-.1.064h.159Zm4.462-1.88.191-.255-.223.287.032-.032Zm.637-.829-.064.032v.032l.064-.064Zm-16.382,2.8.478-.605-1.307-.351-.574.478,1.4.478Zm13.226-2.773-.128-.127-.032.064.159.064Zm.35-.574-.319-.1.1.319Zm2.613-.542v0Zm.637-.414-.032-.032.032.064Zm-.255-.064-.064-.032-.032.1.1-.064Zm-2.231-.1.287-.1v-.1Zm.159-.159.159-.159-.032-.032Zm-1.115-1.179-.064.064h.032Zm-11.76-17.848h-.064L627.6,392.068l-3.028.223-.988.1.032.765.637,6.151,1.052,1.466.032.861,1.02,1.785.829,2.613-.287,1.466-.223,3.633-.478,1.179h.064l.1.829-.542.765,3.952-.446,3.091.861,2.2.287,1.115-.8-.606-.8,2.04-.637-.064.7,1.052-.255.86,1.339.733-.255,1.912,1.307-1.179.414,2.709.8h1.02l.605-.733,1.307-.7.924,1.339.637-1.211-.191-1.912,1.721.669.191.574,2.04.255,1.02.829-.128.669,1.434-1.339-.542-.7-2.39-.606-.892-.51-.032-.956.988.128.765-1.562-.988-1.37-.542,1.307-1.243-.223.861-1.4-.574-.159-1.4.988-2.008.128-.574-.446.924-1.625,1.084-.032,1.849.606,1.339.127h0l-.733-.924-1.4-2.741.383-1.53-11,1.211.414-.414L638.049,403l.669-.988.382-2.486,2.422-4.143-1.179-1.434.064-1.052-.733-1.721Z" transform="translate(-468.178 -269.748)" fill="#efefef" stroke="#fff" stroke-linejoin="round" stroke-width="0.5" fill-rule="evenodd"/>
    <path id="Texas" d="M461.2,396.12l-1.53-5.769v1.084Zm-.351-10.135-1.084,2.04-.127.669Zm.861-1.5,1.02-1.339-.733.446Zm3.6-3.251-2.39,1.243.669-.128Zm.319-.446.669-.542-.255.064Zm-37.8-53.479-.223-.032-1.084,29.895-6.31-.287-10.1-.574-4.048-.287.8,1.562.032.032,3.442,3.442,1.976,2.327,2.613,1.944,1.849,3.378.7,3.538,1.5.988,1.179,1.307,1.689.605,2.454,1.562,1.116.414,1.53-1.53.478-1.625.8-1.562,2.486-.988.956.478,2.773.223,2.518,1.562,1.721.319-.478.892.988.637.924,1.115.191,1.179.606.8L442.3,382l1.4,1.179,1.084,1.785,1.37,1.4.606.191.51,3.633,1.5.829.064,1.147.382-.1,2.613,3.187,1.307.287,1.657.988h2.55l1.848,1.02,2.2-.478-.988-.924-.892-2.677-.351-2.327-.51-.765.223-1.562-.669-.064-.892-1.466,1.02,1.084,1.179-.414.637-1.689-1.275-1.721,1.912.223.892-1.37-.127-.478.8-1.052-.191.924.892-.7-.351-1.243,1.147.606,1.466-.829-1.434-1.5.892.351,1.657.1,2.167-.478,2.422-1.625,1.466-1.211.223-.892.892-.924-.478-1.53.1-.956,1.594-.7-.128,1.689h.956l-1.052.892,4.239-2.231.7-.032.446-2.04h.128l.478-1.179.223-3.633.287-1.466-.829-2.613-1.02-1.785L479.2,358l-1.052-1.466-.637-6.151-.032-.765-.064-.8-.191-2.8-1.912.064-.478-.51-.1-.032h-.032l-1.243-.223-1.434-.924-1.594-.669-3,.861-.8-.191-.988.382-1.211.988-3.251-1.53-1.02,1.4-1.5-.542-1.594-1.02-.861.733-.829.032v-.606l-2.231-1.052-.892.414-.446-.51-2.454-.255-1.88-1.721-.287.574-1.37-.064-1.275-1.211-.574-1.912-.1-10.9-8.159-.1-7.713-.191h-.191Z" transform="translate(-322.082 -226.982)" fill="#efefef" stroke="#fff" stroke-linejoin="round" stroke-width="0.5" fill-rule="evenodd"/>
    <path id="Connecticut" d="M921.024,143.345l-4.589,1.753-.064-.159-2.582.765-.574.159.064.319,1.211,4.685.383.478-.829,1.02.574.542h0l1.848-1.785.988-1.37.191.382,4.653-2.072.1-.1-.032-.765-.191-.669-.988-2.773-.128-.351-.032-.064Z" transform="translate(-662.712 -103.442)" fill="#efefef" stroke="#fff" stroke-linejoin="round" stroke-width="0.5" fill-rule="evenodd"/>
    <path id="New_Hampshire" data-name="New Hampshire" d="M920.177,75.983l-.414.51-.478-.1-.255,2.1v.032l.765,2.868-.064.574-1.37,1.817.351,1.657V87.52l-.255,1.912,1.434,5.227h0l1.307-.414,4.016-1.339,1.817-1.976h0v-.51l.1-.829-.223.1-.032-.191-2.008-2.454-.064-.223-4.621-10.836Z" transform="translate(-666.167 -58.199)" fill="#efefef" stroke="#fff" stroke-linejoin="round" stroke-width="0.5" fill-rule="evenodd"/>
    <path id="Rhode_Island" data-name="Rhode Island" d="M940.185,144.844l-.032-.669-.1.255Zm.638-.51-.414-.8-.032.829Zm-.191-.988.223.574.287.51.191-.382-.287-.542-.1-.382h-.319Zm-3.538-1.307.127.351.988,2.773.191.669.032.765.064-.1,1.53-1.211-.287-2.167.638-.127h0l-1.4-1.689-1.466.574Z" transform="translate(-678.749 -102.073)" fill="#efefef" stroke="#fff" stroke-linejoin="round" stroke-width="0.5" fill-rule="evenodd"/>
    <path id="Vermont" d="M904.765,99.874l-1.434-5.227.255-1.912V90.664l-.351-1.657,1.37-1.817.064-.574-.765-2.868-.414.159-1.753.637-1.721.669-3.952,1.434-.223.064,1.434,3.346.478,3.155,1.689,2.645,1.594,5.227.064-.032.255-.1.733-.223.637-.223,1.817-.542.223-.1h0Z" transform="translate(-651.043 -63.414)" fill="#efefef" stroke="#fff" stroke-linejoin="round" stroke-width="0.5" fill-rule="evenodd"/>
    <path id="Alabama" d="M718.248,340.545l.127.255.446.287.191,13.067.064,7.171,1.625,9.816.127-.032,1.434.287.382-2.836.637,1.593,1.084.988,2.072-1.211-.223-.191.064.032-1.434-3.283,13.768-2.231.924-.159v-.032l-.861-1.625-.064-2.327-.7-1.275.351-2.486.574-.637-2.359-4.207-4.271-13-.032-.064-.956.159-5.1.829-2.55.319-5.354.733.032.064Z" transform="translate(-531.74 -234.479)" fill="#efefef" stroke="#fff" stroke-linejoin="round" stroke-width="0.5" fill-rule="evenodd"/>
    <path id="Florida" d="M776.586,451.187h-.064l.032.032.032-.032Zm-.287-.032v.032h.032Zm.064-.032v0Zm-4.334.478h0v0Zm-.064.032v0ZM772,451.6Zm-.319.032h-.032v.032Zm9.051-2.008H780.7l.032.064Zm.861-.223v-.064l-.064.1Zm-.319-.064-.128-.128-.032.032.159.1Zm-.1.255-.382-.478.223.414.159.064Zm3.028-1.88v.128l.064-.064Zm.446-.319.1-.159-.128.128.032.032Zm.1-.319h-.032v.032Zm-.574-.1-.032-.032.032.032Zm.287-.478-.032-.032v.064Zm-.86-.032-.032-.032.032.032Zm1.084-.733-.064.032.1.032-.032-.064Zm.128,0-.064-.064.032.1.032-.032Zm-.223-.064-.032-.032v.064l.032-.032Zm1.179-.223v-.032l-.064.127Zm-1.339.127h-.064l.064.032Zm.669-.382H785l-.032.032Zm.255-.159Zm-2.677.127V445.1l-.032.064Zm.287-.1h-.1l.1.191Zm-.765.032v-.191l-.159.032Zm-.446-.319.159.159v-.064l-.159-.1Zm4.685.191-.574.255.191.032Zm-4.462-.287h-.191v.064Zm5.036-1.594.032-.159.032-.414Zm.032-1.785-.128-.319-.064.127Zm-7.362.8-.064.1.159.032Zm-.605-.287-.287.1.223.032.064-.128Zm-.638.064v-.1l-.032.032.032.064Zm-.669-.032-.191.128.255.127Zm.892.032-.032-.1-.159-.032.191.127Zm-4.175-3.123-.191.1.382.128Zm-.765-1.02-.255-.383.1.287.159.1Zm.988.637-.446-1.02-.319-.1Zm-1.275-1.275-.1-.255-.064-.159.159.414Zm-2.645-3.538-.574-.414.223.223Zm14.342-2.135-2.327-3.888h-.127l2.454,3.888Zm-16.095-6.215-.1-.032.1.064Zm-.191-.223-.032.032.032.032v-.064Zm-.223-.319v-.032l-.032.032Zm.127-.128.1.064v-.064Zm.191-.127-.128.032h.032Zm-.223-.032-.1-.1.032.032.064.064Zm-.223-.351h-.064l.1.032Zm.223-.382h-.127l-.032.032Zm.128.064-.159-.159.064.032.1.128Zm-1.211-1.37-.064-.032v.032Zm-1.37,0-.1-.128.032.159.064-.032Zm-11.6-1.052.956-.733-1.052.7.1.032Zm1.912-1.53.1-.1-.382.159Zm-12.111-2.135-3.474,1.115,1.912-.542Zm8.637-5.418-.924.159L738.405,414.6l1.434,3.283.1.032-.351,1.307,1.02-.446,1.116-.988,1.912-.064,2.2-.8,1.5.223-.351.542,2.741.924,2.358,1.147.542,1.275,1.753-.382,4.143-3.378,1.53.064,6.247,4.717,1.275-.255,1.339,1.785.255,2.837-.414,1.785.191.892,1.115,2.231-.51-1.753,1.434-.032.128,1.275-.765,1.976,2.645,3.633.988.032-.829-1.116,1.02.128.606-.382-.255,2.04,1.37,1.084.924,2.486,1.243.765,1.594.414,2.2,2.8,1.147.605-1.53.1.7.8,2.518-.829,1.243-.7,1.147-4.016-.574-6.247-.128-.637-3.06-5.1-2.613-3.7-1.466-3.028,1.243,1.052.255-.191.542,2.645,1.4,2.008-1.37-2.677.064-1.275-4.111-5-.988-1.562-1.307-2.645-.892-2.231-.7-.8-.159-1.02-.032-.032-2.2-.128-.86.669-.478,2.454-.446-1.147-15.043,1.88-1.084-1.689.032-.032Z" transform="translate(-545.301 -282.591)" fill="#efefef" stroke="#fff" stroke-linejoin="round" stroke-width="0.5" fill-rule="evenodd"/>
    <path id="Georgia" d="M788.68,352.027l-.032-.956-.223.829Zm.351-1.466-.127-.733-.1.446Zm-14.915-20.079-.414.1-1.211.255-4.462.924-.414.1-.446.064-2.486.478-.669.128-2.709.51-.574.064.032.064,4.271,13,2.358,4.207-.574.637-.351,2.486.7,1.275.064,2.327.861,1.625v.032l-.032.032,1.084,1.689,15.043-1.88.446,1.147.478-2.454.861-.669,2.2.128h0l-.191-3.442.414-.733-.223-1.37.446-1.307.669-.733-.478-.446,1.115-1.37h-.032l-1.912-1.785-2.613-3.729-1.434-.669L777.78,336l-1.5-1.912-2.9-1.211-.159-.637.892-1.753h0Z" transform="translate(-560.295 -229.133)" fill="#efefef" stroke="#fff" stroke-linejoin="round" stroke-width="0.5" fill-rule="evenodd"/>
    <path id="Mississippi" d="M683.773,377.005l-.159.032v.032l.159-.064Zm2.964-.382h-.446l.414.032Zm-3.7.319-.128.128.032.032Zm3-.255h-1.211l1.147.032Zm-13.29-30.373v.032l-1.339,2.231.127,1.721-1.817,2.008.478.574-1.211,5.1.574,1.084-.319.223.032.7v.223L670,361.93l-.064,1.052,1.179,1.434-2.422,4.143-.383,2.486-.669.988.446,1.147-.414.414,11-1.211-.382,1.53,1.4,2.741.733.924v-.032l1.179-1.339,2.486-.542,2.295.255.351-.446v-.032l-1.625-9.816-.064-7.171-.191-13.067-.446-.287-.127-.255h-.064l-1.593.223-2.8.382-6.374.8Z" transform="translate(-497.775 -238.781)" fill="#efefef" stroke="#fff" stroke-linejoin="round" stroke-width="0.5" fill-rule="evenodd"/>
    <path id="South_Carolina" data-name="South Carolina" d="M799.671,323.637h0l-.892,1.753.159.637,2.9,1.211,1.5,1.912,6.151,5.163,1.434.669,2.613,3.729,1.912,1.785h0l.319-1.466-.51-1.4,1.37,1.02.765-.606-1.307-1.084,1.594-.1,2.486-2.1-.287-.542,1.53-1.179-.159-.574,1.115-.7.064-1.625,1.753-3.251,1.179-1.5.127-.064-7.107-4.494-2.645.51-3.6-.128-1.785-.924-10.581,3.346h-.1Z" transform="translate(-585.85 -222.288)" fill="#efefef" stroke="#fff" stroke-linejoin="round" stroke-width="0.5" fill-rule="evenodd"/>
    <path id="Illinois" d="M655.828,194.665l-.064.159,1.211.765.382.765,1.275,1.211-.032,1.02-.7,2.008-1.593,1.147-1.434.287-.287,1.657.478.223-.478,3.251-1.179.733.223,1.243-.287.127h0l-.255,1.4,1.02,2.837,3.633,3.06.319,1.466.7.733,2.295-.127-.414,2.135-.159,2.295,1.37,1.115,2.167.956,1.147.892.637,1.817-.351.669,2.263,1.849.1.032-.191-.191.637-1.5,2.454.669.605-.7-.478-1.4,2.008-1.179-.542-.765.478-1.084v-.1l-.128-.032.032-2.837.7-.51,1.211-2.836-.255-1.243-.8-1.5.446-1.689-2.231-15.712-.319-.351-.829-1.88-.669-.7-.287-1.849v-.064l-4.3.606-2.582.319-6.948.8h0Z" transform="translate(-487.996 -136.756)" fill="#efefef" stroke="#fff" stroke-linejoin="round" stroke-width="0.5" fill-rule="evenodd"/>
    <path id="Indiana" d="M723.224,200.223l-4.876.861-1.115.223-3.952.637-.829.669-1.243.574-.478-.032-.574-.287-.191-.191L712.2,218.39l-.446,1.689.8,1.5.255,1.243-1.211,2.837-.7.51L710.858,229l.127.032.128-.032.478-.892h1.179l1.434-.478,1.785.669.191-.733,1.02-.765,1.53.223.829-1.625,2.263.191-.032-.924,2.008-2.645-.319-1.211,1.4-.032,1.721-1.37-.414-1.562.064-.064-.064-.542-1.912-11.282-.861-4.813-.1-.51-.1-.414Z" transform="translate(-526.199 -141.645)" fill="#efefef" stroke="#fff" stroke-linejoin="round" stroke-width="0.5" fill-rule="evenodd"/>
    <path id="Kentucky" d="M692.326,273.636l-.1-.255-.191-.064-.128.414.032.032.351-.032Zm21.8-20.843-.064.064.414,1.562-1.721,1.37-1.4.032.319,1.211-2.008,2.645.032.924-2.263-.191-.829,1.625-1.53-.223-1.02.765-.191.733-1.785-.669-1.434.478h-1.179l-.478.892-.128.032v.1l-.478,1.084.542.765-2.008,1.179.478,1.4-.606.7-2.454-.669-.637,1.5.191.191.064.127-.287,2.613-.128.064-.829.51-.032.1.924-.128,6.438-.861-.319-1.275,1.083-.032,12.971-1.721,9.115-1.53.127-.1.223-.255,2.39-1.275,1.848-2.422.255-.829,1.211-.956,1.53-1.944.223-.319-.1-.032h-.8l-1.02-.574-1.817-2.2-.637-2.231v-.064l-.064-.064-1.339-.765-.606-1.02-1.211,1.179-.765.191-.956-.382-.829.637-1.721-.765-.446.191-1.625-1.4-.829-.414-1.562.191-.255.255Z" transform="translate(-514.073 -176.653)" fill="#efefef" stroke="#fff" stroke-linejoin="round" stroke-width="0.5" fill-rule="evenodd"/>
    <path id="North_Carolina" data-name="North Carolina" d="M817.262,290.832l-.351.351.064.064Zm.255-1.849-.159.255.064.255Zm1.912-2.964-.478.319-.255.383.733-.7Zm4.111-2.008-.191-.128-.414-.032.606.159Zm-.861-.191h-.287l-.478.255Zm.988.351.924-2.295-.637.956-.287,1.339Zm1.37-3.028.414-.606h-.223Zm2.677-2.486-.7-3.538.606,1.848Zm-3.888-8.063-.064.032-.1.032h.032l1.753,2.964,1.37,1.37-3-4.4h0Zm-.574.191-.255.064h0l.064.032h.542l-.064-.191h0l-.1.032h-.1v.064l-.064.032-.032-.032h0Zm-29.48,7.267-.159.478.032,1.37-.351-.032-.829,1.689-.924.1-1.721,1.689-.765-.287-.988,1.466-2.613,2.358-1.275.319-1.339,1.243-.064.829-1.179.637.032,1.4v.319l.414-.1,4.462-.924,1.211-.255.414-.1h.1l10.581-3.346,1.785.924,3.6.128,2.645-.51,7.107,4.494.128-.1,3.283-1.339.032-1.753,1.179-2.135,1.275-1.211,2.645-1.753.351-.637.7.319.319-2.1-.382.733-1.339.446-1.275.032,1.562-1.147-.478-.51.542-1.147-3-.478-.127-.159,2.55-.478.828.414,1.052-.1.861-.637.637-1.243.574-.159-.1-1.753-.733-.7-.733.669.159,1.689-.542-2.072-.414-.1-3.155,1.307,1.4-1.37.064-.542,1.466-.351.414-1.084.988.574-1.052-1.562-.733-.637h0l-12.748,3.633-8.127,2.072-8.223,1.53-.032-.064Z" transform="translate(-574.311 -188.909)" fill="#efefef" stroke="#fff" stroke-linejoin="round" stroke-width="0.5" fill-rule="evenodd"/>
    <path id="Ohio" d="M772.817,190.136l-.8-3.442-.159-.7-.892-3.92-1.147.733-2.454,1.88-1.594,1.944-1.243.191-2.295,1.307-1.275-.765-3.856-.446h0l-2.04.51-2.008.478-2.1.446-.319.1.1.51.86,4.813,1.912,11.282.064.542.255-.255,1.562-.191.829.414,1.625,1.4.446-.191,1.721.765.829-.637.956.382.765-.191,1.211-1.179.605,1.02,1.339.765.064.064h0l1.37-.669.478-1.052-.382-1.084,1.084-1.657.8-.127-.1-1.4,1.307-1.785.223.255,1.179-.892,1.02-1.53.159-6.98.064-.032-.159-.669Z" transform="translate(-553.515 -129.454)" fill="#efefef" stroke="#fff" stroke-linejoin="round" stroke-width="0.5" fill-rule="evenodd"/>
    <path id="Tennessee" d="M716.893,295.666l-9.115,1.53-12.971,1.721-1.084.032.319,1.275-6.438.861-.924.127v.032l-.255.319-.127-.032v-.287l-.351.032.032.032.191.892-.637.8-.064,1.466v.287l-.956,1.849.191,1.307-.892,1.4.319,1.275-1.147,1.052.064.064.7-.064,6.374-.8,2.8-.382,1.594-.223h.064l-.032-.064,5.354-.733,2.55-.319,5.1-.829.956-.159.574-.064,2.709-.51.669-.128,2.486-.478.446-.064v-.319l-.032-1.4,1.179-.637.064-.829,1.339-1.243,1.275-.319,2.613-2.358.988-1.466.765.287,1.721-1.689.924-.1.829-1.689.351.032-.032-1.37.159-.478-.51.1-1.817.51-2.167.446-5.45,1.115-.574.1-.128.1Z" transform="translate(-508.076 -204.164)" fill="#efefef" stroke="#fff" stroke-linejoin="round" stroke-width="0.5" fill-rule="evenodd"/>
    <path id="Virginia" d="M826.739,239.364h.1l.1-.032h0l-.064-.159-.127.191Zm-1.084-3.57v.159l.159-.1Zm.574-1.115-.032-.255h0Zm-.191.382-.064.414-.1.159.159-.574Zm.287-.829.032-.191-.064.191h.032Zm.191-.861.1-.223-.159.574Zm.032-.478.128-.7-.159.159Zm.574-3.155.064-.287-.032.064Zm-.127-.733-.414.159-.638.287-.223.287.1.032-.765,4.749.287.765.446-1.976.829-2.582.382-1.689v-.032Zm.637-.255-.1.032-.032.128-.159.988.127-.351Zm-33.3,12.207-.223.319-1.53,1.944-1.211.956-.255.829-1.848,2.422-2.39,1.275-.223.255.574-.1,5.45-1.115,2.167-.446,1.817-.51.51-.1.032.064,8.223-1.53,8.127-2.072,12.748-3.633h0l-.1-.159-.032-.1.223.223h0l.255-.064-.032-.032-.223-1.084.159.032.51.956h0l.1-.032.064-.032-.128-.255-1.307-2.008-1.625.287-.733.606-.7-.637-2.39-.8-1.657-.064,3.219-.287,1.785,1.211.51-.8-1.434-1.817,1.02.064-.542-1.466-1.275.064-3.028-2.454h-.382l4.271,2.1-.287-1.466.287-.478-2.167-.829-1.88-.127-.924-.829-.765.478-.287-2.2.319.064-.064-1.785-.064-.064-.064.032-.064-.032-.159-.127-.1-.1-1.02-.446-1.052-.765-1.466-.382-.1-.032v.032l-.191,1.339L809.816,224l.064,1.849-1.625,3.091-.988,1.084-.637,1.88-1.944-.669-.956,4.334-.765,1.466-.127,1.912-.574.924-2.135.637-1.753,1.37-.829.127-.8.7-2.008-.733-.351-.988-.064-.032Z" transform="translate(-577.701 -157.552)" fill="#efefef" stroke="#fff" stroke-linejoin="round" stroke-width="0.5" fill-rule="evenodd"/>
    <path id="Wisconsin" d="M649.922,115.05l-.8.988-.478,1.434.223.8Zm-18.294-7.49.478-.669-.351.319Zm.733-1.052-.159-.191-.351.223.51-.032Zm-6.948,1.785-.733.829.351,3.824-2.04,1.848-.382,1.785,1.115,1.02-.319,4.4,1.179.892.765.064,2.422,1.466,1.53,1.594,1.944.988.446,2.454v.159h0l.924,1.115-.255.861.319,1.88.956,1.307,1.753.924-.032.159h0l6.948-.8,2.581-.319,4.3-.606-.128-.478v-1.5l-.861-1.594-.223-2.008.414-2.231-.223-1.721.765-2.135-.287-.351.064-1.976.414-1.5-.478-.51-.924.319-.51,1.339-1.211.7.382-1.689,1.084-1.434.064-.637.032-.032-1.53-1.53V113.01l-1.721-1.4-2.359-.159-2.422-.637-5.227-1.594-1.02-.574-.1.1-1.625-.223-.542.319.223-2.327-2.613,1.339-3.187.51Zm6.247-1.689-.064-.223-.223.1Zm-1.147-.223.1-.191-.064-.064Zm2.327-.542-.1-.446-.1.542Z" transform="translate(-467.526 -77.952)" fill="#efefef" stroke="#fff" stroke-linejoin="round" stroke-width="0.5" fill-rule="evenodd"/>
    <path id="West_Virginia" data-name="West Virginia" d="M809.871,213.608l-4.526,1.115-1.4-6.055h0l-.064.032-.159,6.98-1.02,1.53-1.179.892-.223-.255-1.307,1.785.1,1.4-.8.128-1.084,1.657.382,1.084-.478,1.052-1.37.669h0v.064l.637,2.231,1.817,2.2,1.02.574h.8l.1.032.064.032.351.988,2.008.733.8-.7.829-.127,1.753-1.37,2.135-.637.574-.924.127-1.912.765-1.466.956-4.334,1.944.669.637-1.88.988-1.084,1.625-3.091-.064-1.848,2.964,1.275.191-1.339v-.032h0l-.924-1.594-1.912-.223-1.115.861v.637l-.956.223-1.4.988-.733.159-1.466,2.072-.733-3.346-.637.159Z" transform="translate(-584.481 -147.317)" fill="#efefef" stroke="#fff" stroke-linejoin="round" stroke-width="0.5" fill-rule="evenodd"/>
    <path id="Delaware" d="M893.8,205.481l.127.478,2.645,7.553,3.028-.892-.032-.064h.064l.1.032h0l.064-.032-.064-.128-.765-2.04-3.729-3.538.159-2.454h-.765l-.574.446-.255.637Z" transform="translate(-649.674 -144.448)" fill="#efefef" stroke="#fff" stroke-linejoin="round" stroke-width="0.5" fill-rule="evenodd"/>
    <path id="District_of_Columbia" data-name="District of Columbia" d="M878.176,228.562l.159.127.064.032.064-.032.064.032.223.127.064.1v.223l.064.127.414-.765-.446-.255-.542.032-.127.255Z" transform="translate(-639.178 -160.486)" fill="#efefef" stroke="#fff" stroke-linejoin="round" stroke-width="0.5" fill-rule="evenodd"/>
    <path id="Maryland" d="M862.606,217.737l.223-1.721-.191,1.275-.127.542-.032.064.1-.032.032-.127Zm.159-2.964-.064.032.064.191v-.223ZM838.671,212.8l.733,3.346,1.466-2.072.733-.159,1.4-.988.956-.223v-.637l1.115-.861,1.912.223.924,1.594h0l.1.032,1.466.382,1.052.765,1.02.446.1.1.128-.255.542-.032.446.255-.414.765v.032l-.605,1.848,1.976,1.275,1.976.1,1.307.606-.542-1.53-1.689-.574-.414-1.307,1.052,1.4.86.127-.765-.765-.606-2.263.159-1.307-.669-1.434.7-.574.51-1.849L855.4,212l.542.924.51-1.084.287,1.785-.542,1.307,1.562.574-1.339.446.7,1.307,1.147.382.637-1.115-.064,1.562,1.084-.032.7.8h.032l.223-.287.637-.287.414-.159-.032-.064.829-2.454v-.1l-.159-.637v-.032l-3.028.892-2.645-7.553-.127-.478-.542.159-2.263.7-12.461,3.474-2.263.606-.574.159Z" transform="translate(-612.644 -146.665)" fill="#efefef" stroke="#fff" stroke-linejoin="round" stroke-width="0.5" fill-rule="evenodd"/>
    <path id="New_Jersey" data-name="New Jersey" d="M902.921,182.6l-.159-.382v.382Zm.319-1.179.1-.956-.191.829Zm-1.307-9.784-3.346-.829-.574-.159-.542-.127h0l-1.339,2.964.574.7-.032,2.135.606.1,1.243,3.251-.064.1-1.562,2.295.159,1.753,3.761,1.275.032,1.466.86-1.211.127-1.753.892-.606-.351-1.307.669-1.562v-3.41l-.223-1.115-1.5.032.382-1.53.223-2.454h0Z" transform="translate(-651.238 -121.696)" fill="#efefef" stroke="#fff" stroke-linejoin="round" stroke-width="0.5" fill-rule="evenodd"/>
    <path id="New_York" data-name="New York" d="M852.161,122l-.478.669-.128.191Zm4.4-1.562,1.594-1.4v-.064l-1.594,1.466Zm-4.175.988v-1.084l-.1.574Zm7.394-5.1-.382-.1-.064.287Zm.861-.574-.032.319.064-.191Zm-.892.032-2.135,1.976-3.283,1.4-.86.733-.064.7-.892.733.127.956,1.37-.542,2.008-1.625,2.231-1.179,3.378-3.187-2.39,1.817-.765.319Zm.988-1.339.127-.191-.382.446Zm-35.823-1.179-.51-.064.382.51Zm10.581-9.752.064-.351-.255.319.191.032Zm.159-2.295-.128.064-.159.351Zm-13.481,18.1.223.956,1.689.414,9.689-2.645,9.752-2.932,1.785,1.37.351.8,2.072.892.064.127.542.127.574.159,3.346.829-.064-.159.287,1.307.637-.159.351-1.434v-.032l-.574-.542.829-1.02-.382-.478-1.211-4.685-.064-.319-.159-.1-.1-1.4-.1-1.53-.1-1.657v-.1l-.064.032-1.594-5.227-1.689-2.645-.478-3.155-1.434-3.346-.191.1L839.508,95.1l-1.339,1.434-1.5,2.868.064.637-1.976,3,1.211.414.351,2.263-1.4,1.849-4.207,2.55-.8-.319-3.123.446-2.9,1.753.159.924,1.02.892-.574,2.8-2.295,2.677-.032.032Z" transform="translate(-601.562 -69.477)" fill="#efefef" stroke="#fff" stroke-linejoin="round" stroke-width="0.5" fill-rule="evenodd"/>
    <path id="Pennsylvania" d="M841.277,163.875l-2.072-.892-.351-.8-1.785-1.37-9.752,2.932-9.689,2.645-1.689-.414-.223-.956-.542.414-.86.606-1.562,1.594-.191.159.892,3.92.159.7.8,3.442.159.669h0l1.4,6.055,4.526-1.115.637-.159.574-.159,2.263-.606,12.461-3.474,2.263-.7.542-.159h0l.255-.637.574-.446h.765l.1-.287,1.243-1.4.128-.223.1-.064-1.243-3.251-.606-.1.032-2.135-.574-.7L841.341,164h0Z" transform="translate(-595.107 -115.177)" fill="#efefef" stroke="#fff" stroke-linejoin="round" stroke-width="0.5" fill-rule="evenodd"/>
    <path id="Maine" d="M931.414,53.533h-.032l.064.032Zm2.358-6.788-.255-.382v.191l.255.191Zm-.446-.351v-.319l-.032-.191.032.51Zm1.147-1.339-.064-.032.032.1Zm3.187-1.594-.064-.478-.127.223Zm-.8.191.032-.351-.382.064.351.287Zm1.179-1.052h-.127v.064Zm-1.594.478-.287-.064-.032.287Zm1.625-.988.287.223-.1-.255Zm-.86.032-.287.542.382-.191-.1-.351Zm-1.371.032-.128.191.1.287.032-.478Zm1.88-1.052-.032-.255-.1.159Zm-.159.127-.287-.255V41.2Zm-1.785.733-.064-.351-.127.287Zm3.028-1.115-.478.7-.032-.51Zm2.327-2.135-.223-.319-.127.064.351.255ZM942,37.279l-.191-.1-.032.1Zm.414-2.486h-.287l.319.1Zm.478.319-.1-.574-.255-.032Zm-.51-.51L942.314,34l-.223.414Zm-18.485,5,4.621,10.836.064.223,2.008,2.454v-.032l.319-.1.064-1.817.51-.637.319-1.689-.287-.287.542-1.657,1.848-.861,1.211-1.466.446-2.55L937.5,41.9l-.255-1.307,2.422-.924.159-1.434.574.127L942,37.056l.7-1.689-1.625-1.625-1.721-.351-.637-1.307v-.765l-1.052.319-1.179-.414V29.917l-3.187-6.884-2.327-1.211-2.581,2.167-.7-.127-.605-1.115-.829.319-1.179,5.864.414,1.912.351,3.888-.924,3,.637.478-.765,1.466-.829-.127-.064.064Z" transform="translate(-669.883 -21.821)" fill="#efefef" stroke="#fff" stroke-linejoin="round" stroke-width="0.5" fill-rule="evenodd"/>
    <path id="Michigan" d="M676.415,99.085l-.159-.255-.032.319Zm.51-.574-.382-.51-.064.223Zm.319-2.295-.319-.287v.064Zm-.8,24.955,3.952-.637,1.116-.223,4.876-.861.1.414.319-.1,2.1-.446,2.008-.478,2.04-.51-.032-.1,1.052-2.072-.1-1.721,1.179-2.964.924.542.351-.669-.1-2.55-.861-1.594-1.275-3.378-1.115-1.243-.574-.159-2.072,1.434.223.287-1.084,2.04L688.43,106l-.319-2.135.446-.159.924-2.135.1-3.761-1.434-3.187-3.187-.542-.319-.478-2.964-.861L680.335,94.4l.127,1.434-1.02,1.275.223,1.976-.988.7V97.3l-.892,1.88-1.052,1.657-.7.542.351,1.753-.446,1.817.255,2.263-.319,1.115,2.295,4.4.287,1.689-.287,3.123-1.53,3.506-.191.127Zm6.82-28.716-.829.064.51.382.319-.446Zm-4.844.829h-.255l.287.127ZM684,89.237l-.319-.51-.128.032Zm-28.875,2.327,1.02.574,5.227,1.594,2.422.637,2.359.159,1.721,1.4V98.1l1.53,1.53v-.032l1.243-3.6,1.5-1.052,1.147-1.275.191,1.147L674.662,93l2.836-1.084.223-.446,2.868.351,1.116.574.542-1.4.51.319,2.231-.351-.542-.892-.988-.574.191-2.072L681.705,88.5l-1.785-.223-.574-1.37.191-.446-2.422,1.147-1.562.1-2.8,1.721-.319.637-1.721-.414-1.083.478-2.167-1.88-4.813-1.466-.1-.574-3.091,2.964-1.753.446-2.486,1.88-.1.064Zm11.282-7.235-3.729,1.849,1.243,1.211.478-1.211,1.275-1.562Zm-4.175-4.366-2.55,1.753-.128.861,2.008-1.466Z" transform="translate(-489.365 -60.872)" fill="#efefef" stroke="#fff" stroke-linejoin="round" stroke-width="0.5" fill-rule="evenodd"/>
  </g>
</svg>
