<svg xmlns="http://www.w3.org/2000/svg" width="20.335" height="20.335" viewBox="0 0 20.335 20.335">
  <path id="maximize-solid" d="M0,39.263l1.453,1.453,2.36-2.36,3.813,3.813L3.813,45.98l-2.36-2.36L0,45.073v7.263H7.263l1.453-1.453-2.36-2.36,3.813-3.813,3.813,3.813-2.36,2.36,1.453,1.453h7.263V45.073L18.883,43.62l-2.36,2.36-3.813-3.813,3.813-3.813,2.36,2.36,1.453-1.453V32H13.073L11.62,33.453l2.36,2.36-3.813,3.813L6.355,35.813l2.36-2.36L7.263,32H0Z" transform="translate(0 -32)" fill="#909090"/>
</svg>
