<svg xmlns="http://www.w3.org/2000/svg" width="37.314" height="33.168" viewBox="0 0 37.314 33.168">
  <path id="memo-circle-check-light" d="M20.73,2.073H4.146A2.073,2.073,0,0,0,2.073,4.146V29.022a2.072,2.072,0,0,0,2.073,2.073H19.188a10.286,10.286,0,0,0,2.17,2.028,4.944,4.944,0,0,1-.628.045H4.146A4.148,4.148,0,0,1,0,29.022V4.146A4.146,4.146,0,0,1,4.146,0H20.73a4.148,4.148,0,0,1,4.146,4.146v8.72a11.308,11.308,0,0,0-2.073.816V4.146A2.072,2.072,0,0,0,20.73,2.073ZM4.146,9.328A1.038,1.038,0,0,1,5.182,8.292H19.693a1.036,1.036,0,0,1,0,2.073H5.182A1.038,1.038,0,0,1,4.146,9.328ZM17.62,14.511a1.036,1.036,0,0,1,0,2.073H5.182a1.036,1.036,0,0,1,0-2.073ZM13.474,20.73a1.036,1.036,0,0,1,0,2.073H5.182a1.036,1.036,0,0,1,0-2.073Zm17.407.3A1.035,1.035,0,0,1,32.345,22.5l-4.664,4.664a1.028,1.028,0,0,1-1.464,0l-2.591-2.591a1.035,1.035,0,0,1,1.464-1.464l1.859,1.859ZM18.657,23.839a9.328,9.328,0,1,1,9.328,9.328A9.331,9.331,0,0,1,18.657,23.839Zm9.328,7.255a7.255,7.255,0,1,0-7.255-7.255A7.252,7.252,0,0,0,27.985,31.095Z" fill="#002b42"/>
</svg>
