<svg xmlns="http://www.w3.org/2000/svg" width="19.5" height="19.5" viewBox="0 0 19.5 19.5">
  <g id="Group_3208" data-name="Group 3208" transform="translate(-3.973 -4.314)">
    <g id="Ellipse_128" data-name="Ellipse 128" transform="translate(3.973 4.314)" fill="#d8d8d8" stroke="#fff" stroke-width="1">
      <circle cx="9.75" cy="9.75" r="9.75" stroke="none"/>
      <circle cx="9.75" cy="9.75" r="9.25" fill="none"/>
    </g>
    <path id="moon-regular" d="M5.5,34.727a8.523,8.523,0,0,0,4.458,12.5A6.689,6.689,0,0,1,5.5,34.727Zm2.36-2.508a8.512,8.512,0,1,0,5.515,15.457c.072-.049.141-.1.209-.152.182-.137.357-.281.528-.433.1-.091.2-.182.3-.277a.607.607,0,0,0-.528-1.034c-.141.023-.281.046-.422.061-.19.019-.384.034-.581.038h-.152A6.693,6.693,0,0,1,8.506,34.021c.038-.034.08-.065.122-.1.152-.122.312-.236.475-.342.118-.076.239-.152.365-.22a.607.607,0,0,0-.251-1.133c-.137-.011-.27-.019-.407-.023-.1,0-.209,0-.312,0-.125,0-.247,0-.372.008-.087,0-.175.008-.262.015Z" transform="translate(5.785 -26.71)" fill="#727272"/>
  </g>
</svg>
