<svg xmlns="http://www.w3.org/2000/svg" width="16.164" height="18.408" viewBox="0 0 16.164 18.408">
  <path id="note-sticky-light" d="M2.309,33.315A1.241,1.241,0,0,0,1.155,34.63V47.778a1.241,1.241,0,0,0,1.155,1.315h7.5V45.148a1.864,1.864,0,0,1,1.732-1.972h3.464V34.63a1.241,1.241,0,0,0-1.155-1.315Zm8.659,15.232,3.561-4.055H11.546a.623.623,0,0,0-.577.657ZM0,34.63A2.487,2.487,0,0,1,2.309,32H13.855a2.487,2.487,0,0,1,2.309,2.63V43.4a2.828,2.828,0,0,1-.675,1.861l-3.846,4.376a2.176,2.176,0,0,1-1.634.768h-7.7A2.487,2.487,0,0,1,0,47.778Z" transform="translate(0 -32)" fill="#fff"/>
</svg>
