<svg xmlns="http://www.w3.org/2000/svg" width="18" height="18" viewBox="0 0 18 18">
  <path id="Path_797" data-name="Path 797" d="M515,34.571A2.574,2.574,0,0,0,512.429,32H499.571A2.574,2.574,0,0,0,497,34.571V47.429A2.574,2.574,0,0,0,499.571,50h12.857A2.574,2.574,0,0,0,515,47.429Zm-8.128,7.112-4.179,4.179a.963.963,0,0,1-1.362-1.362l3.5-3.5-3.5-3.5a.963.963,0,1,1,1.362-1.362l4.179,4.171a.96.96,0,0,1,0,1.362Zm5.407,0L508.1,45.862a.963.963,0,0,1-1.362-1.362l3.5-3.5-3.5-3.5a.963.963,0,0,1,1.362-1.362l4.179,4.171a.96.96,0,0,1,0,1.362Z" transform="translate(-497 -32)" fill="#96999b"/>
</svg>
