<svg xmlns="http://www.w3.org/2000/svg" width="15.995" height="14.769" viewBox="0 0 15.995 14.769">
  <path id="angles-down-solid" d="M40.178,79.56a1.232,1.232,0,0,1-1.742,0l-6.151-6.151a1.231,1.231,0,0,1,1.742-1.742l5.282,5.282,5.282-5.279a1.231,1.231,0,0,1,1.742,1.742l-6.151,6.151ZM46.33,66.027l-6.151,6.151a1.232,1.232,0,0,1-1.742,0l-6.151-6.151a1.231,1.231,0,0,1,1.742-1.742l5.282,5.282,5.282-5.279a1.231,1.231,0,0,1,1.742,1.742Z" transform="translate(79.92 -31.925) rotate(90)" fill="#fff"/>
</svg>
