<svg xmlns="http://www.w3.org/2000/svg" width="10.002" height="20.003" viewBox="0 0 10.002 20.003">
  <path id="grip-dots-vertical-regular_1_" data-name="grip-dots-vertical-regular (1)" d="M32,65.667a1.667,1.667,0,1,1,1.667,1.667A1.667,1.667,0,0,1,32,65.667ZM32,74a1.667,1.667,0,1,1,1.667,1.667A1.666,1.666,0,0,1,32,74Zm3.334,8.335a1.667,1.667,0,1,1-1.667-1.667A1.666,1.666,0,0,1,35.334,82.336Zm3.334-16.67a1.667,1.667,0,1,1,1.667,1.667A1.666,1.666,0,0,1,38.668,65.667ZM42,74a1.667,1.667,0,1,1-1.667-1.667A1.665,1.665,0,0,1,42,74Zm-3.334,8.335A1.667,1.667,0,1,1,40.335,84,1.665,1.665,0,0,1,38.668,82.336Z" transform="translate(-32 -64)" fill="#fff"/>
</svg>
