<svg xmlns="http://www.w3.org/2000/svg" width="20.072" height="20.072" viewBox="0 0 20.072 20.072">
  <path id="star-sharp-light" d="M9.028.736a1.058,1.058,0,0,1,2.015,0L13,6.9h6.026a1.042,1.042,0,0,1,1.043,1.043.988.988,0,0,1-.467.843l-5.077,3.693,1.992,6.543a.812.812,0,0,1-.776,1.051.792.792,0,0,1-.5-.172l-5.21-4.05L4.826,19.9a.87.87,0,0,1-.5.172.813.813,0,0,1-.778-1.051l1.993-6.543L.432,8.785A1.041,1.041,0,0,1,1.042,6.9H7.068Zm1.008.975L8.123,7.719a.658.658,0,0,1-.6.435H1.7l4.942,3.567a.631.631,0,0,1,.231.694L5.155,18.057l4.5-3.5a.623.623,0,0,1,.768,0l4.5,3.5L13.2,12.416a.631.631,0,0,1,.231-.694l4.944-3.567h-5.83a.624.624,0,0,1-.6-.435Z" fill="#fff"/>
</svg>
