<svg xmlns="http://www.w3.org/2000/svg" width="17.969" height="15.723" viewBox="0 0 17.969 15.723">
  <path id="thumbs-up-light" d="M3.088,37.615H1.4a1.4,1.4,0,0,0-1.4,1.4v7.3a1.4,1.4,0,0,0,1.4,1.4H3.088a1.4,1.4,0,0,0,1.4-1.4v-7.3A1.4,1.4,0,0,0,3.088,37.615Zm.281,8.7a.281.281,0,0,1-.281.281H1.4a.281.281,0,0,1-.281-.281v-7.3a.281.281,0,0,1,.281-.281H3.088a.281.281,0,0,1,.281.281Zm14.6-7.668a2.161,2.161,0,0,0-2.158-2.158h-3.6a7.012,7.012,0,0,0,.661-2.363A2.129,2.129,0,0,0,10.7,32c-1.447,0-1.779,1.022-2.075,1.924-.971,2.958-3.01,3.439-3.01,4.253a.561.561,0,0,0,.958.4c1.849-1.861,2.352-1.969,3.117-4.3.323-.977.424-1.151,1.01-1.151a1.02,1.02,0,0,1,1.051,1.006,7.418,7.418,0,0,1-.934,2.649.562.562,0,0,0,.491.837h4.5a1.031,1.031,0,0,1,.071,2.06.562.562,0,0,0-.523.56c0,.428.423.451.423,1.075a1.032,1.032,0,0,1-.843,1.014.564.564,0,0,0-.458.553c0,.312.237.376.237.827,0,1.089-1.106.776-1.106,1.511,0,.124.042.18.042.351A1.036,1.036,0,0,1,12.617,46.6H10.665c-2.878,0-3.8-2.247-4.489-2.247a.561.561,0,0,0-.562.56c-.032.574,2.267,2.81,5.05,2.81h1.952a2.16,2.16,0,0,0,2.158-2.157A2.16,2.16,0,0,0,15.84,43.7a2.116,2.116,0,0,0-.061-.5A2.157,2.157,0,0,0,16.9,41.309a2.119,2.119,0,0,0-.132-.736A2.151,2.151,0,0,0,17.969,38.65Z" transform="translate(0 -32)" fill="#002a40"/>
</svg>
