<svg xmlns="http://www.w3.org/2000/svg" width="19.688" height="17.227" viewBox="0 0 19.688 17.227">
  <path id="toolbox-light" d="M18.969,37.433,17.95,36.414a2.456,2.456,0,0,0-1.742-.723H14.766V33.846A1.847,1.847,0,0,0,12.92,32H6.768a1.847,1.847,0,0,0-1.846,1.846v1.846H3.48a2.459,2.459,0,0,0-1.74.719L.721,37.433A2.454,2.454,0,0,0,0,39.172v7.595a2.461,2.461,0,0,0,2.461,2.461H17.227a2.461,2.461,0,0,0,2.461-2.461V39.172A2.453,2.453,0,0,0,18.969,37.433ZM6.153,33.846a.616.616,0,0,1,.615-.615H12.92a.616.616,0,0,1,.615.615v1.846H6.153ZM1.591,38.3,2.61,37.283a1.216,1.216,0,0,1,.87-.361H16.174a1.223,1.223,0,0,1,.87.36L18.063,38.3a1.079,1.079,0,0,1,.394.87v3.288H14.151V41.229a.615.615,0,0,0-1.231,0v1.231H6.768V41.229a.615.615,0,0,0-1.231,0v1.231H1.231V39.172A1.164,1.164,0,0,1,1.591,38.3ZM17.227,48H2.461a1.232,1.232,0,0,1-1.231-1.231V43.69H5.537V44.92a.609.609,0,0,0,.581.615.671.671,0,0,0,.65-.615V43.69H12.92V44.92a.615.615,0,1,0,1.231,0V43.69h4.307v3.076A1.234,1.234,0,0,1,17.227,48Z" transform="translate(0 -32)" fill="#fff"/>
</svg>
