<svg xmlns="http://www.w3.org/2000/svg" width="38.875" height="30.598" viewBox="0 0 38.875 30.598">
  <path id="truck-light_1_" data-name="truck-light (1)" d="M3.888,24.861A3.858,3.858,0,0,1,0,21.036V3.825A3.856,3.856,0,0,1,3.888,0H21.381a3.858,3.858,0,0,1,3.888,3.825V5.737h3.967a2.919,2.919,0,0,1,2.211,1l4.78,5.486a2.831,2.831,0,0,1,.7,1.865v8.857H37.9a.956.956,0,1,1,0,1.912H34.988a5.832,5.832,0,0,1-11.663,0H15.5A5.752,5.752,0,0,1,9.664,30.6a5.786,5.786,0,0,1-5.831-5.737ZM1.944,3.825V21.036a1.927,1.927,0,0,0,1.944,1.912h.332a5.865,5.865,0,0,1,11,0h8.109V3.825a1.927,1.927,0,0,0-1.944-1.912H3.888A1.928,1.928,0,0,0,1.944,3.825Zm32.734,9.562-4.708-5.4a1.046,1.046,0,0,0-.735-.335H25.269v5.737ZM25.269,15.3v5.283a5.758,5.758,0,0,1,3.888-1.458,5.819,5.819,0,0,1,5.5,3.825h.334V15.3ZM9.719,21.036a3.825,3.825,0,1,0,3.888,3.825A3.86,3.86,0,0,0,9.719,21.036Zm19.438,7.649a3.825,3.825,0,1,0-3.888-3.825A3.86,3.86,0,0,0,29.157,28.685Z" fill="#002b42"/>
</svg>
