<svg xmlns="http://www.w3.org/2000/svg" width="21.236" height="16.989" viewBox="0 0 21.236 16.989">
  <path id="truck-light_1_" data-name="truck-light (1)" d="M2.124,13.8A2.125,2.125,0,0,1,0,11.68V2.124A2.123,2.123,0,0,1,2.124,0H11.68A2.125,2.125,0,0,1,13.8,2.124V3.185H15.97a1.584,1.584,0,0,1,1.208.557l2.611,3.046a1.587,1.587,0,0,1,.385,1.035v4.917h.531a.531.531,0,0,1,0,1.062H19.112a3.185,3.185,0,0,1-6.371,0H8.465a3.185,3.185,0,0,1-6.371,0ZM1.062,2.124V11.68a1.061,1.061,0,0,0,1.062,1.062H2.3a3.186,3.186,0,0,1,6.007,0h4.43V2.124A1.061,1.061,0,0,0,11.68,1.062H2.124A1.062,1.062,0,0,0,1.062,2.124ZM18.943,7.433l-2.572-3a.567.567,0,0,0-.4-.186H13.8V7.433ZM13.8,8.494v2.933a3.116,3.116,0,0,1,2.124-.81,3.182,3.182,0,0,1,3,2.124h.182V8.494ZM5.309,11.68A2.124,2.124,0,1,0,7.433,13.8,2.126,2.126,0,0,0,5.309,11.68Zm10.618,4.247A2.124,2.124,0,1,0,13.8,13.8,2.126,2.126,0,0,0,15.927,15.927Z" fill="#fff"/>
</svg>
