<svg xmlns="http://www.w3.org/2000/svg" width="18.04" height="14.432" viewBox="0 0 18.04 14.432">
  <path id="users-light" d="M9.017,9.02A2.932,2.932,0,1,0,6.111,6.089,2.91,2.91,0,0,0,9.017,9.02Zm0-4.961a2.03,2.03,0,1,1-2.03,2.03A2.031,2.031,0,0,1,9.017,4.059Zm1.409,5.863H7.614A3.887,3.887,0,0,0,3.608,13.68a.776.776,0,0,0,.8.753h9.223a.776.776,0,0,0,.8-.753A3.887,3.887,0,0,0,10.427,9.922ZM4.516,13.53a3,3,0,0,1,3.075-2.706h2.836A2.968,2.968,0,0,1,13.5,13.53Zm9.917-9.02a2.255,2.255,0,1,0-2.255-2.255A2.255,2.255,0,0,0,14.432,4.51Zm0-3.608a1.353,1.353,0,1,1-1.353,1.353A1.354,1.354,0,0,1,14.432.9ZM3.608,4.51A2.255,2.255,0,1,0,1.353,2.255,2.255,2.255,0,0,0,3.608,4.51ZM3.608.9A1.353,1.353,0,1,1,2.255,2.255,1.354,1.354,0,0,1,3.608.9Zm12.208,4.51H13.981a2.118,2.118,0,0,0-.915.21.451.451,0,0,0,.387.815,1.238,1.238,0,0,1,.529-.122h1.834a1.4,1.4,0,0,1,1.323,1.429v.375a.451.451,0,1,0,.9,0V7.743A2.282,2.282,0,0,0,15.816,5.412ZM4.589,6.435a.451.451,0,0,0,.387-.815,2.138,2.138,0,0,0-.917-.208H2.225A2.282,2.282,0,0,0,0,7.743v.375a.451.451,0,1,0,.9,0V7.743A1.38,1.38,0,0,1,2.225,6.314H4.059A1.264,1.264,0,0,1,4.589,6.435Z" fill="#fff"/>
</svg>
