<svg xmlns="http://www.w3.org/2000/svg" width="15.117" height="17.276" viewBox="0 0 15.117 17.276">
  <path id="user-light_2_" data-name="user-light (2)" d="M7.559,8.638A4.319,4.319,0,1,0,3.239,4.319,4.319,4.319,0,0,0,7.559,8.638Zm0-7.559A3.239,3.239,0,1,1,4.319,4.319,3.243,3.243,0,0,1,7.559,1.08Zm1.711,9.178H5.848A5.849,5.849,0,0,0,0,16.106a1.17,1.17,0,0,0,1.17,1.17H13.948a1.167,1.167,0,0,0,1.169-1.17A5.848,5.848,0,0,0,9.269,10.258ZM13.946,16.2H1.17a.09.09,0,0,1-.09-.091,4.774,4.774,0,0,1,4.768-4.768H9.266a4.775,4.775,0,0,1,4.771,4.768A.091.091,0,0,1,13.946,16.2Z" fill="#fff"/>
</svg>
