<svg xmlns="http://www.w3.org/2000/svg" width="30" height="26" viewBox="0 0 30 26">
  <g id="Group_2275" data-name="Group 2275" transform="translate(-357 -789)">
    <path id="Polygon_12" data-name="Polygon 12" d="M12.4,4.5a3,3,0,0,1,5.2,0l9.806,17a3,3,0,0,1-2.6,4.5H5.194a3,3,0,0,1-2.6-4.5Z" transform="translate(357 789)" fill="#002a40"/>
    <path id="triangle-exclamation-solid" d="M11.213,32a1.743,1.743,0,0,1,1.506.865L22.15,48.932a1.746,1.746,0,0,1-1.506,2.628H1.782A1.746,1.746,0,0,1,.275,48.932L9.707,32.865A1.743,1.743,0,0,1,11.213,32Zm0,5.589a1.045,1.045,0,0,0-1.048,1.048v4.89a1.048,1.048,0,0,0,2.1,0v-4.89A1.045,1.045,0,0,0,11.213,37.589Zm1.4,9.78a1.4,1.4,0,1,0-1.4,1.4A1.4,1.4,0,0,0,12.61,47.369Z" transform="translate(360.785 762.079)" fill="#f5cf77"/>
  </g>
</svg>
